<svg width="1440" height="900" viewBox="0 0 1440 900" fill="none" xmlns="http://www.w3.org/2000/svg">
<g clip-path="url(#clip0_1_1049)">
<g clip-path="url(#clip1_1_1049)">
<mask id="mask0_1_1049" style="mask-type:luminance" maskUnits="userSpaceOnUse" x="-27" y="-79" width="1467" height="979">
<path d="M1440 -79H-27V900H1440V-79Z" fill="white"/>
</mask>
<g mask="url(#mask0_1_1049)">
<path d="M148.923 911.298C179.339 869.162 212.278 828.866 247.505 790.666C263.173 773.69 279.721 756.792 300.493 746.689C353.56 720.843 416.993 745.925 466.988 777.332C513.032 806.251 555.614 840.653 593.541 879.598C631.136 918.19 664.877 961.814 710.412 990.577C755.967 1019.34 818.481 1029.97 862.491 998.918C888.682 980.435 904.447 949.753 910.413 918.249C916.379 886.725 913.445 854.203 908.34 822.542C902.491 786.28 893.905 748.471 905.347 713.579C917.181 677.454 951.431 649.787 989.201 645.832C1042.93 640.213 1090.19 677.65 1135.47 707.157C1193 744.633 1259.85 772.535 1328.39 768.579C1396.91 764.644 1466.15 722.684 1486.71 657.11" stroke="#C5D8E9" stroke-miterlimit="10"/>
<path d="M156.023 925.376C185.872 883.925 218.4 844.413 253.236 807.132C268.728 790.568 285.1 774.101 305.501 764.154C346.479 744.183 393.658 754.325 435.946 774.003C447.467 779.348 458.636 785.418 469.218 791.762C514.714 819.076 556.925 851.873 594.715 889.173C632.153 926.14 665.737 968.315 710.823 996.021C736.095 1011.55 766.041 1022.18 795.518 1024.1C821.2 1025.76 846.687 1020.63 868.007 1006.05C871.821 1003.44 875.42 1000.58 878.804 997.509C899.714 978.496 912.408 951.163 917.963 923.183C919.743 914.196 920.858 905.13 921.465 896.026C923.029 872.275 921.191 848.25 918.472 824.774C914.188 787.513 908.496 749.371 921.367 714.558C934.159 679.98 967 653.096 1003.87 649.043C1056.33 643.287 1102.63 678.57 1146.91 706.002C1150.39 708.155 1153.94 710.29 1157.48 712.365C1211.23 743.85 1272.08 765.681 1333.87 760.669C1399.77 755.324 1465.84 713.599 1484.93 649.513" stroke="#C5D8E9" stroke-miterlimit="10"/>
<path d="M163.123 939.454C192.424 898.688 224.503 859.978 258.987 823.599C274.302 807.426 290.518 791.409 310.547 781.619C350.782 761.961 397.022 771.124 438.626 789.51C449.971 794.503 460.983 800.201 471.448 806.172C516.396 831.901 558.255 863.072 595.888 898.727C633.17 934.069 666.637 974.756 711.214 1001.44C737.444 1017.15 768.173 1028.23 798.569 1030.62C824.975 1032.67 851.401 1027.86 873.503 1013.17C877.455 1010.55 881.21 1007.65 884.75 1004.5C906.54 985.134 919.548 956.958 925.533 928.097C927.45 918.836 928.702 909.496 929.465 900.156C931.46 875.76 930.364 851.03 928.604 826.986C925.905 788.746 923.029 750.291 937.386 715.497C951.02 682.466 982.55 656.346 1018.52 652.195C1069.71 646.302 1115.05 679.431 1158.34 704.787C1161.74 706.784 1165.2 708.742 1168.66 710.661C1221.14 739.679 1280.02 759.043 1339.36 752.719C1402.62 745.984 1465.55 704.474 1483.17 641.877" stroke="#C5D8E9" stroke-miterlimit="10"/>
<path d="M170.204 953.512C198.957 913.452 230.605 875.525 264.698 840.046C279.857 824.284 295.877 808.699 315.554 799.085C355.066 779.76 400.347 787.924 441.286 805.037C452.474 809.697 463.33 815.004 473.677 820.603C518.079 844.726 559.585 874.272 597.062 908.302C634.187 942.019 667.576 981.199 711.625 1006.89C738.833 1022.75 770.324 1034.3 801.62 1037.16C828.75 1039.61 856.134 1035.08 879.019 1020.3C883.127 1017.66 887.019 1014.72 890.697 1011.51C913.347 991.772 926.668 962.774 933.083 933.032C935.137 923.516 936.526 913.902 937.465 904.308C939.89 879.246 939.518 853.85 938.736 829.219C937.602 789.98 937.504 751.29 953.406 716.477C967.783 684.992 998.101 659.656 1033.19 655.407C1083.11 649.376 1127.49 680.352 1169.78 703.632C1173.1 705.473 1176.47 707.274 1179.87 709.017C1231.1 735.548 1288 752.445 1344.86 744.809C1405.48 736.684 1465.23 695.389 1481.39 634.28" stroke="#C5D8E9" stroke-miterlimit="10"/>
<path d="M177.304 967.591C205.49 928.215 236.728 891.072 270.449 856.494C285.432 841.124 301.276 826.008 320.581 816.531C359.349 797.538 403.692 804.705 443.966 820.545C454.978 824.853 465.697 829.787 475.907 835.015C519.761 857.551 560.915 885.472 598.236 917.858C635.184 949.949 668.515 987.582 712.016 1012.31C740.202 1028.33 772.457 1040.33 804.652 1043.68C832.506 1046.54 860.829 1042.31 884.496 1027.41C888.741 1024.74 892.79 1021.77 896.604 1018.5C920.135 998.39 933.768 968.55 940.594 937.927C942.765 928.137 944.311 918.269 945.406 908.42C948.281 882.711 948.614 856.631 948.79 831.412C949.22 791.175 951.841 752.289 969.328 717.417C984.37 687.46 1013.57 662.906 1047.74 658.579C1096.39 652.412 1139.81 681.214 1181.1 702.438C1184.35 704.103 1187.64 705.747 1190.94 707.333C1240.9 731.397 1295.84 745.828 1350.24 736.88C1408.22 727.364 1464.82 686.285 1479.51 626.664" stroke="#C5D8E9" stroke-miterlimit="10"/>
<path d="M184.405 981.668C212.043 942.978 242.85 906.638 276.2 872.96C291.007 858.001 306.674 843.316 325.628 834.015C363.672 815.356 407.056 821.523 446.665 836.091C457.502 840.046 468.064 844.608 478.157 849.484C521.463 870.415 562.245 896.73 599.409 927.471C636.202 957.918 669.473 994.004 712.407 1017.77C741.571 1033.93 774.589 1046.42 807.684 1050.24C836.261 1053.49 865.523 1049.57 889.993 1034.57C894.394 1031.89 898.58 1028.88 902.55 1025.55C926.961 1005.09 940.888 974.404 948.164 942.9C950.472 932.855 952.154 922.693 953.426 912.61C956.731 886.255 957.749 859.469 958.942 833.663C960.859 792.427 966.218 753.346 985.367 718.415C1000.98 689.985 1029.14 666.234 1062.41 661.79C1109.79 655.485 1152.25 682.133 1192.55 701.283C1195.72 702.79 1198.92 704.259 1202.15 705.688C1250.84 727.285 1303.82 739.229 1355.74 728.969C1411.09 718.063 1464.51 677.18 1477.75 619.066" stroke="#C5D8E9" stroke-miterlimit="10"/>
<path d="M191.505 995.747C218.595 957.742 248.972 922.184 281.931 889.427C296.562 874.879 312.053 860.625 330.655 851.481C367.956 833.154 410.401 838.323 449.345 851.599C460.025 855.201 470.431 859.391 480.406 863.895C523.164 883.24 563.595 907.93 600.602 937.007C637.238 965.828 670.471 1000.33 712.838 1023.18C742.999 1039.47 776.779 1052.45 810.755 1056.74C840.056 1060.4 870.257 1056.78 895.528 1041.66C900.086 1038.94 904.408 1035.91 908.516 1032.52C933.787 1011.68 948.047 980.18 955.734 947.795C958.179 937.476 959.998 927.06 961.426 916.722C965.162 889.701 966.902 862.25 969.074 835.856C972.555 793.603 980.497 754.364 1001.39 719.355C1017.47 692.413 1044.69 669.485 1077.08 664.962C1123.19 658.52 1164.69 683.015 1203.99 700.069C1207.08 701.42 1210.21 702.712 1213.34 703.985C1260.77 723.095 1311.78 732.591 1361.23 721.019C1413.95 708.704 1464.22 668.056 1475.99 611.43" stroke="#C5D8E9" stroke-miterlimit="10"/>
<path d="M198.605 1009.8C225.129 972.485 255.095 937.731 287.681 905.874C302.156 891.718 317.452 877.914 335.701 868.926C372.278 850.932 413.785 855.103 452.044 867.105C462.548 870.356 472.797 874.193 482.656 878.305C524.866 896.045 564.944 919.11 601.796 946.561C638.275 973.758 671.488 1006.63 713.248 1028.6C744.427 1045.01 778.931 1058.5 813.806 1063.26C843.831 1067.31 874.99 1063.98 901.024 1048.79C905.719 1046.05 910.198 1042.97 914.443 1039.53C940.594 1018.34 955.147 985.976 963.264 952.729C965.846 942.136 967.802 931.465 969.406 920.872C973.592 893.206 976.037 865.05 979.186 838.088C984.233 794.836 994.697 755.421 1017.39 720.334C1033.86 694.86 1060.24 672.794 1091.71 668.173C1136.53 661.594 1177.09 683.935 1215.39 698.913C1218.4 700.088 1221.46 701.243 1224.51 702.34C1270.67 718.983 1319.73 725.992 1366.69 713.109C1416.76 699.403 1463.86 658.97 1474.17 603.833" stroke="#C5D8E9" stroke-miterlimit="10"/>
<path d="M205.686 1023.88C231.662 987.249 261.197 953.278 293.393 922.322C307.691 908.576 322.811 895.203 340.689 886.392C376.543 868.731 417.071 871.981 454.665 882.633C464.993 885.55 475.105 888.996 484.846 892.736C526.509 908.89 566.236 930.33 602.93 956.136C639.253 981.708 672.466 1012.94 713.62 1034.05C745.796 1050.57 781.043 1064.55 816.819 1069.8C847.567 1074.26 879.665 1071.23 906.501 1055.92C911.352 1053.16 915.968 1050.02 920.369 1046.54C947.382 1024.98 962.267 991.791 970.815 957.663C973.533 946.816 975.626 935.871 977.387 925.024C982.003 896.691 985.172 867.87 989.279 840.32C995.89 796.07 1008.8 756.479 1033.37 721.294C1050.15 697.269 1075.75 676.064 1106.33 671.345C1149.87 664.629 1189.48 684.816 1226.78 697.719C1229.71 698.737 1232.66 699.716 1235.64 700.656C1280.53 714.832 1327.61 719.375 1372.13 705.179C1419.56 690.083 1463.51 649.866 1472.35 596.217" stroke="#C5D8E9" stroke-miterlimit="10"/>
<path d="M212.786 1037.96C238.214 1002.01 267.3 968.844 299.144 938.788C313.266 925.435 328.21 912.512 345.735 903.858C380.846 886.529 420.435 888.781 457.364 898.16C467.516 900.725 477.472 903.799 487.096 907.167C528.211 921.715 567.565 941.549 604.123 965.711C640.29 989.638 673.502 1019.22 714.031 1039.49C747.244 1056.11 783.195 1070.62 819.889 1076.34C851.361 1081.19 884.398 1078.47 912.037 1063.06C917.024 1060.28 921.817 1057.11 926.335 1053.57C954.228 1031.64 969.406 997.607 978.384 962.617C981.22 951.496 983.47 940.276 985.406 929.194C990.453 900.216 994.345 870.689 999.431 842.572C1007.61 797.323 1022.88 757.517 1049.41 722.292C1066.42 699.677 1091.34 679.392 1121.02 674.576C1163.28 667.723 1201.95 685.736 1238.24 696.584C1241.09 697.445 1243.97 698.248 1246.86 699.031C1290.5 710.74 1335.61 712.796 1377.64 697.289C1422.45 680.802 1463.24 640.8 1470.61 588.639" stroke="#C5D8E9" stroke-miterlimit="10"/>
<path d="M219.886 1052.04C244.747 1016.78 273.422 984.39 304.894 955.255C318.86 942.312 333.608 929.82 350.782 921.342C385.168 904.327 423.799 905.619 460.064 913.686C470.039 915.918 479.858 918.601 489.365 921.597C529.932 934.559 568.935 952.768 605.336 975.285C641.326 997.587 674.578 1025.49 714.481 1044.93C748.711 1061.63 785.386 1076.69 822.98 1082.88C855.176 1088.14 889.151 1085.7 917.572 1070.19C922.716 1067.39 927.646 1064.18 932.301 1060.58C961.074 1038.29 976.565 1003.42 985.954 967.531C988.927 956.155 991.313 944.662 993.426 933.325C998.922 903.681 1003.54 873.489 1009.58 844.784C1019.34 798.536 1036.89 758.476 1065.45 723.251C1082.66 702.007 1106.91 682.662 1135.69 677.767C1176.68 670.777 1214.4 686.637 1249.66 695.409C1252.44 696.094 1255.24 696.76 1258.03 697.367C1300.4 706.589 1343.55 706.197 1383.12 689.378C1425.29 671.482 1462.9 631.715 1468.81 581.042" stroke="#C5D8E9" stroke-miterlimit="10"/>
<path d="M226.987 1066.1C251.3 1031.52 279.545 999.937 310.625 971.683C324.415 959.151 338.987 947.11 355.789 938.769C389.433 922.086 427.125 922.38 462.724 929.175C472.543 931.054 482.206 933.365 491.575 936.008C531.595 947.364 570.245 963.949 606.47 984.821C642.304 1005.5 675.576 1031.68 714.833 1050.34C750.099 1067.1 787.498 1082.7 825.973 1089.38C858.892 1095.04 893.826 1092.9 923.029 1077.28C928.33 1074.46 933.396 1071.21 938.208 1067.53C967.841 1044.87 983.646 1009.18 993.484 972.407C996.594 960.757 999.118 949.009 1001.39 937.418C1007.31 907.127 1012.65 876.23 1019.68 846.958C1031 799.712 1050.78 759.338 1081.41 724.172C1098.76 704.259 1122.4 685.913 1150.28 680.9C1190 673.773 1226.76 687.479 1261.03 694.175C1263.73 694.704 1266.44 695.193 1269.16 695.644C1310.26 702.399 1351.45 699.521 1388.54 681.39C1428.07 662.103 1462.53 622.552 1466.97 573.367" stroke="#C5D8E9" stroke-miterlimit="10"/>
<path d="M234.087 1080.18C257.833 1046.28 285.667 1015.5 316.376 988.15C329.99 976.01 344.386 964.419 360.836 956.234C393.755 939.885 430.509 939.18 465.423 944.702C475.066 946.229 484.573 948.168 493.844 950.439C533.316 960.209 571.615 975.168 607.683 994.396C643.361 1013.45 676.671 1037.92 715.263 1055.78C751.586 1072.58 789.669 1088.77 829.044 1095.92C862.687 1101.99 898.56 1100.15 928.545 1084.42C933.983 1081.59 939.206 1078.3 944.154 1074.56C974.668 1051.53 990.785 1014.99 1001.03 977.361C1004.28 965.457 1006.94 953.415 1009.39 941.589C1015.74 910.652 1021.87 879.089 1029.81 849.21C1042.8 800.985 1064.6 760.2 1097.43 725.171C1114.85 706.57 1137.97 689.222 1164.95 684.131C1203.4 676.867 1239.2 688.419 1272.47 693.04C1275.09 693.412 1277.73 693.725 1280.35 694.019C1320.18 698.307 1359.41 692.962 1394.03 673.519C1430.92 652.842 1462.22 613.506 1465.21 565.809" stroke="#C5D8E9" stroke-miterlimit="10"/>
<path d="M241.187 1094.25C264.385 1061.05 291.789 1031.05 322.107 1004.62C335.564 992.888 349.765 981.727 365.863 973.719C398.039 957.703 433.853 955.999 468.103 960.228C477.57 961.403 486.939 962.989 496.074 964.869C534.998 973.053 572.925 986.387 608.857 1003.97C644.378 1021.4 677.727 1044.13 715.674 1061.22C753.033 1078.06 791.821 1094.84 832.095 1102.46C866.462 1108.92 903.274 1107.39 934.061 1091.55C939.655 1088.69 945.015 1085.36 950.1 1081.57C981.494 1058.19 997.905 1020.81 1008.58 982.295C1011.95 970.116 1014.77 957.82 1017.37 945.739C1024.15 914.137 1031.02 881.889 1039.9 851.442C1054.47 802.218 1078.32 760.963 1113.41 726.149C1130.89 708.802 1153.49 692.511 1179.56 687.342C1216.74 679.941 1251.58 689.339 1283.85 691.884C1286.4 692.08 1288.96 692.257 1291.5 692.374C1330.07 694.195 1367.33 686.363 1399.49 665.608C1433.76 643.542 1461.89 604.421 1463.39 558.212" stroke="#C5D8E9" stroke-miterlimit="10"/>
<path d="M248.268 1108.33C270.919 1075.81 297.892 1046.62 327.838 1021.08C341.119 1009.75 355.144 999.036 370.87 991.184C402.323 975.501 437.179 972.799 470.744 975.755C480.054 976.578 489.247 977.792 498.264 979.299C536.641 985.878 574.216 997.607 609.991 1013.54C645.356 1029.33 678.764 1050.32 716.026 1066.67C754.442 1083.5 793.914 1100.89 835.088 1109C870.159 1115.85 907.929 1114.62 939.519 1098.7C945.25 1095.8 950.766 1092.45 956.008 1088.59C988.262 1064.84 1005.01 1026.62 1016.12 987.249C1019.62 974.816 1022.57 962.245 1025.35 949.91C1032.59 917.661 1040.15 884.728 1050.01 853.694C1066.15 803.471 1091.97 761.628 1129.41 727.148C1146.91 711.014 1169.02 695.84 1194.21 690.573C1230.12 683.034 1264 690.259 1295.28 690.749C1297.74 690.788 1300.2 690.788 1302.67 690.749C1339.97 690.083 1375.26 679.804 1404.95 657.737C1436.58 634.28 1461.54 595.375 1461.59 550.654" stroke="#C5D8E9" stroke-miterlimit="10"/>
<path d="M255.368 1122.39C277.452 1090.57 304.014 1062.14 333.589 1037.51C346.694 1026.58 360.543 1016.31 375.917 1008.61C406.626 993.26 440.563 989.539 473.443 991.243C482.577 991.713 491.634 992.555 500.533 993.69C538.363 998.683 575.585 1008.77 611.204 1023.08C646.412 1037.24 679.86 1056.46 716.476 1072.07C755.968 1088.91 796.105 1106.92 838.178 1115.5C873.973 1122.76 912.702 1121.82 945.054 1105.79C950.942 1102.87 956.594 1099.48 961.973 1095.57C995.108 1071.46 1012.14 1032.4 1023.69 992.124C1027.32 979.416 1030.41 966.592 1033.35 954.002C1041.02 921.088 1049.31 887.469 1060.15 855.867C1077.85 804.645 1105.56 762.118 1145.43 728.048C1162.95 713.07 1184.59 699.051 1208.86 693.686C1243.5 686.01 1276.42 691.081 1306.7 689.495C1309.09 689.378 1311.47 689.202 1313.86 689.006C1349.89 685.873 1383.22 673.107 1410.45 649.728C1439.43 624.862 1461.24 586.191 1459.83 542.959" stroke="#C5D8E9" stroke-miterlimit="10"/>
<path d="M262.469 1136.47C284.004 1105.34 310.117 1077.71 339.32 1053.98C352.269 1043.46 365.922 1033.61 380.944 1026.1C410.929 1011.08 443.907 1006.36 476.123 1006.79C485.081 1006.91 493.981 1007.38 502.763 1008.14C540.045 1011.53 576.915 1020.01 612.358 1032.67C647.39 1045.21 680.916 1062.65 716.848 1077.53C757.415 1094.33 798.217 1113.01 841.21 1122.06C877.729 1129.71 917.396 1129.09 950.55 1112.95C956.594 1110.02 962.384 1106.59 967.9 1102.61C1001.9 1078.14 1019.26 1038.25 1031.22 997.098C1034.99 984.116 1038.22 971.017 1041.33 958.192C1049.43 924.632 1058.44 890.328 1070.26 858.138C1089.52 805.938 1119.06 762.549 1161.43 729.067C1178.93 715.224 1200.12 702.399 1223.49 696.936C1256.84 689.124 1288.82 692.041 1318.1 688.38C1320.41 688.086 1322.72 687.753 1325.01 687.401C1359.78 681.801 1391.14 666.568 1415.88 641.877C1442.23 615.62 1460.89 577.165 1458.02 535.421" stroke="#C5D8E9" stroke-miterlimit="10"/>
<path d="M269.569 1150.55C290.557 1120.1 316.239 1093.26 345.07 1070.44C357.843 1060.32 371.32 1050.92 385.99 1043.56C415.252 1028.88 447.271 1023.14 478.822 1022.3C487.604 1022.06 496.367 1022.16 505.032 1022.57C541.766 1024.37 578.284 1031.23 613.571 1042.23C648.446 1053.14 682.031 1068.78 717.278 1082.94C758.921 1099.68 800.408 1119.02 844.281 1128.56C881.523 1136.62 922.13 1136.29 956.086 1120.04C962.267 1117.08 968.213 1113.62 973.885 1109.58C1008.76 1084.74 1026.42 1044.01 1038.82 1001.99C1042.72 988.757 1046.1 975.384 1049.37 962.304C1057.92 928.078 1067.66 893.109 1080.41 860.332C1101.26 807.133 1132.54 762.745 1177.45 730.007C1194.95 717.241 1215.67 705.65 1238.16 700.109C1270.24 692.159 1301.26 692.923 1329.54 687.186C1331.77 686.735 1334 686.246 1336.21 685.717C1369.72 677.631 1399.12 659.93 1421.4 633.928C1445.12 606.281 1460.6 568.041 1456.25 527.785" stroke="#C5D8E9" stroke-miterlimit="10"/>
<path d="M276.669 1164.6C297.09 1134.84 322.361 1108.8 350.802 1086.87C363.398 1077.16 376.699 1068.21 390.997 1061.01C419.516 1046.63 450.597 1039.86 481.482 1037.8C490.108 1037.2 498.714 1036.94 507.242 1036.98C543.428 1037.18 579.575 1042.43 614.725 1051.78C649.444 1061.07 683.087 1074.89 717.669 1088.36C760.408 1105.02 802.54 1125.07 847.313 1135.08C885.279 1143.54 926.824 1143.5 961.563 1127.15C967.9 1124.17 974.003 1120.67 979.792 1116.57C1015.55 1091.38 1033.52 1049.81 1046.34 1006.91C1050.37 993.397 1053.89 979.769 1057.33 966.435C1066.31 931.563 1076.77 895.888 1090.5 862.544C1112.92 808.346 1145.88 762.784 1193.43 730.966C1210.93 719.257 1231.2 708.939 1252.77 703.28C1283.58 695.194 1313.64 693.803 1340.93 685.991C1343.08 685.364 1345.23 684.718 1347.36 684.013C1379.6 673.46 1407.04 653.292 1426.84 625.978C1447.92 596.941 1460.24 558.917 1454.44 520.148" stroke="#C5D8E9" stroke-miterlimit="10"/>
<path d="M283.75 1178.68C303.623 1149.61 328.464 1124.35 356.533 1103.34C368.973 1094.02 382.078 1085.52 396.024 1078.47C423.819 1064.43 453.942 1056.66 484.162 1053.33C492.612 1052.37 501.062 1051.76 509.492 1051.41C545.13 1050.02 580.925 1053.62 615.918 1061.36C650.48 1069 684.182 1081.02 718.08 1093.8C761.914 1110.35 804.691 1131.14 850.364 1141.62C889.054 1150.49 931.558 1150.74 967.079 1134.29C973.553 1131.3 979.812 1127.74 985.739 1123.6C1022.36 1098.03 1040.64 1055.62 1053.89 1011.86C1058.05 998.096 1061.71 984.175 1065.31 970.606C1074.72 935.088 1085.91 898.728 1100.61 864.795C1124.6 809.599 1159.2 762.686 1209.43 731.965C1226.93 721.254 1246.73 712.248 1267.4 706.511C1296.94 698.307 1326.06 694.724 1352.33 684.855C1354.41 684.072 1356.46 683.25 1358.51 682.388C1389.5 669.367 1414.96 646.713 1432.29 618.087C1450.74 587.66 1459.89 549.851 1452.64 512.571" stroke="#C5D8E9" stroke-miterlimit="10"/>
<path d="M290.85 1192.76C310.156 1164.37 334.586 1139.91 362.283 1119.8C374.547 1110.9 387.477 1102.83 401.071 1095.94C428.122 1082.23 457.325 1073.46 486.841 1068.86C495.115 1067.55 503.428 1066.57 511.722 1065.84C546.812 1062.85 582.255 1064.84 617.091 1070.93C651.497 1076.94 685.277 1087.13 718.49 1099.25C763.439 1115.63 806.843 1137.21 853.415 1148.16C892.829 1157.42 936.271 1157.99 972.575 1141.42C979.206 1138.41 985.602 1134.8 991.685 1130.59C1029.18 1104.67 1047.78 1061.42 1061.46 1016.78C1065.76 1002.74 1069.55 988.56 1073.33 974.737C1083.19 938.553 1095.08 901.527 1110.77 867.008C1136.33 810.813 1172.54 762.353 1225.47 732.924C1243.01 723.173 1262.3 715.537 1282.09 709.702C1310.36 701.361 1338.52 695.624 1363.79 683.68C1365.79 682.74 1367.76 681.761 1369.74 680.723C1399.45 665.236 1422.94 640.115 1437.81 610.177C1453.61 578.34 1459.62 540.766 1450.88 504.973" stroke="#C5D8E9" stroke-miterlimit="10"/>
<path d="M297.95 1206.84C341.55 1142.46 413.394 1099.91 489.521 1084.39C565.649 1068.86 645.59 1078.88 718.882 1104.69C764.945 1120.9 808.975 1143.26 856.447 1154.7C903.919 1166.13 957.338 1165.23 997.612 1137.62C1048.04 1103.06 1064.84 1037.8 1081.31 978.888C1108.36 882.006 1151.63 778.996 1241.45 733.903C1286.18 711.445 1338.54 705.806 1380.87 679.06C1439.55 641.975 1468.85 563.929 1449.06 497.357" stroke="#C5D8E9" stroke-miterlimit="10"/>
<path d="M-109.856 921.597C-118.091 855.025 -52.428 798.771 13.7826 788.414C79.9932 778.075 146.419 799.417 212.023 813.104C277.627 826.79 351.447 831.313 406.254 792.702C476.318 743.34 492.533 639.508 564.612 593.142C620.788 556.997 693.923 567.825 751.488 594.709C784.036 609.903 811.713 635.474 842.814 653.292C983.88 734.079 993.406 899.138 1113.25 923.77C1243.03 950.418 1313.45 887.077 1337.94 843.159C1369.31 786.886 1421.61 640.898 1293.44 539.434C1241.37 498.218 1189.95 454.281 1151.65 400.005C1094.3 318.748 1094.69 194.532 1168.02 127.373C1218.29 81.3601 1295.49 64.5409 1329.64 5.52673C1352.59 -34.1228 1349.46 -85.2462 1329.72 -126.619C1309.98 -167.972 1275.62 -200.69 1238.3 -227.201" stroke="#C5D8E9" stroke-miterlimit="10"/>
<path d="M-106.883 924.925C-112.555 856.434 -47.2641 797.263 20.922 785.496C87.4847 774.002 155.006 795.188 220.61 810.284C285.451 825.204 357.432 831.979 412.063 796.891C481.853 751.975 501.472 653.409 573.453 607.65C630.803 571.388 702.764 578.143 761.698 601.639C795.557 615.15 825.562 639.233 858.129 657.305C996.242 733.902 1007.61 893.616 1124.85 917.896C1250.95 943.957 1321 884.022 1346.44 840.79C1378.7 786.005 1428.6 645.342 1307.48 545.034C1257.54 503.681 1208.04 458.901 1170.35 404.958C1114.68 325.64 1114.17 205.83 1183.39 139.258C1231.29 93.2055 1305.72 74.4479 1339.72 16.1974C1363.05 -23.6087 1361.62 -74.0077 1344.37 -115.674C1326.98 -157.732 1295.24 -192.29 1259.36 -220.76" stroke="#C5D8E9" stroke-miterlimit="10"/>
<path d="M-103.91 928.234C-107.039 857.844 -42.1003 795.756 28.0615 782.539C94.9567 769.93 163.573 790.9 229.197 807.445C293.275 823.599 363.437 832.625 417.892 801.043C487.389 760.59 510.333 667.115 582.333 622.14C640.759 585.643 711.723 588.384 771.967 608.552C807.175 620.339 839.449 642.993 873.503 661.3C1008.53 733.903 1021.85 888.056 1136.49 912.002C1258.93 937.476 1328.57 880.929 1354.99 838.401C1388.11 785.124 1435.64 649.689 1321.58 550.634C1273.78 509.124 1226.17 463.522 1189.08 409.932C1135.12 332.532 1133.71 217.108 1198.81 151.182C1244.34 105.071 1315.99 84.395 1349.85 26.9277C1373.57 -13.0547 1373.85 -62.7487 1359.1 -104.689C1344.04 -147.471 1314.93 -183.871 1280.51 -214.278" stroke="#C5D8E9" stroke-miterlimit="10"/>
<path d="M-100.936 931.562C-101.523 859.253 -36.9557 794.307 35.2011 779.602C102.448 765.896 172.16 786.612 237.784 804.606C301.08 821.954 369.423 833.29 423.702 805.213C492.925 769.205 519.233 680.958 591.175 636.648C650.735 599.975 720.701 598.605 782.178 615.483C818.775 625.527 853.259 646.771 888.839 665.333C1020.65 734.098 1036.07 882.534 1148.11 906.148C1266.89 931.034 1336.12 877.874 1363.52 836.051C1397.46 784.243 1442.68 653.957 1335.65 556.253C1289.94 514.528 1244.4 468.065 1207.8 414.905C1155.73 339.287 1153.21 228.347 1214.22 163.087C1257.39 116.897 1326.12 94.2433 1359.96 37.6179C1383.98 -2.57981 1386.09 -51.5494 1373.79 -93.7247C1361.08 -137.271 1334.59 -175.452 1301.63 -207.817" stroke="#C5D8E9" stroke-miterlimit="10"/>
<path d="M-97.9639 934.891C-96.0079 860.664 -31.7924 792.878 42.34 776.685C109.939 761.922 180.727 782.324 246.37 801.806C308.904 820.348 375.408 833.976 429.53 809.423C498.46 777.86 528.152 694.821 600.054 651.197C660.749 614.347 729.776 608.806 792.446 622.473C830.452 630.755 867.126 650.629 904.212 669.406C1032.72 734.49 1050.33 877.072 1159.76 900.333C1274.89 924.612 1343.67 874.859 1372.09 833.741C1406.85 783.421 1449.78 658.167 1349.75 561.932C1306.13 519.972 1262.59 472.745 1226.54 419.937C1176.23 346.199 1172.73 239.606 1229.63 175.05C1270.45 128.744 1336.35 104.229 1370.07 48.3678C1394.44 7.99379 1398.36 -40.3297 1388.48 -82.7204C1378.15 -127.069 1354.25 -166.993 1322.74 -201.316" stroke="#C5D8E9" stroke-miterlimit="10"/>
<path d="M-94.9902 938.22C-90.4719 862.093 -26.628 791.448 49.4799 773.748C117.431 757.946 189.295 778.016 254.958 798.967C316.728 818.684 381.452 834.739 435.34 813.593C504.054 786.631 537.072 708.683 608.916 665.686C670.764 628.679 738.872 618.889 802.677 629.384C842.129 635.865 880.936 654.407 919.548 673.4C1044.65 734.96 1064.55 871.511 1171.36 894.439C1282.84 918.131 1351.18 871.765 1380.6 831.352C1416.16 782.5 1456.84 662.161 1363.79 567.531C1322.27 525.297 1280.7 477.326 1245.24 424.891C1196.67 353.052 1192.19 250.727 1245.01 186.935C1283.46 140.472 1346.54 114.117 1380.17 59.058C1404.91 18.5274 1410.62 -29.189 1403.15 -71.7755C1395.21 -116.966 1373.87 -158.613 1343.84 -194.875" stroke="#C5D8E9" stroke-miterlimit="10"/>
<path d="M-92.0176 941.529C-84.9564 863.483 -21.4646 790.039 56.6189 770.792C124.922 753.972 197.881 773.67 263.564 796.128C324.571 817 387.457 835.406 441.188 817.764C509.609 795.267 546.03 722.527 617.795 680.195C680.778 643.032 748.006 628.934 812.945 636.316C853.845 640.976 894.765 658.226 934.922 677.415C1056.57 735.567 1078.8 865.989 1183.02 888.565C1290.82 911.67 1358.71 868.691 1389.14 828.983C1425.49 781.6 1464 666.039 1377.88 573.131C1338.42 530.564 1298.85 481.928 1263.98 429.845C1217.15 359.905 1211.68 261.79 1260.42 198.821C1296.53 152.181 1356.79 124.025 1390.28 69.7296C1415.39 29.0228 1422.94 -18.1063 1417.84 -60.8299C1412.32 -106.862 1393.53 -150.213 1364.95 -188.433" stroke="#C5D8E9" stroke-miterlimit="10"/>
<path d="M-89.0439 944.857C-79.44 864.912 -16.2807 788.667 63.7588 767.874C132.414 750.036 206.449 769.322 272.151 793.328C332.396 815.316 393.443 836.13 446.998 821.954C515.145 803.94 554.949 736.428 626.656 694.723C690.794 657.403 757.141 638.92 823.176 643.266C865.543 646.047 908.555 662.083 950.257 681.447C1068.36 736.311 1093.03 860.467 1194.62 882.71C1298.76 905.227 1366.18 865.617 1397.65 826.633C1434.76 780.718 1471.18 669.817 1391.94 578.77C1354.56 535.811 1316.99 486.568 1282.68 434.837C1237.57 366.797 1231.1 272.832 1275.79 210.744C1309.54 163.87 1367 133.971 1400.37 80.4394C1425.86 39.5564 1435.29 -6.98524 1432.51 -49.8654C1429.46 -96.7791 1413.16 -141.813 1386.03 -181.972" stroke="#C5D8E9" stroke-miterlimit="10"/>
<path d="M-86.0713 948.186C-73.9245 866.322 -11.1174 787.297 70.8977 764.937C139.925 746.121 215.035 764.957 280.737 790.489C340.219 813.593 399.427 836.796 452.807 826.124C520.66 812.575 563.888 750.291 635.497 709.232C700.788 671.775 766.256 648.847 833.405 650.198C877.239 651.079 922.325 665.941 965.611 685.481C1080.12 737.173 1107.26 854.946 1206.26 876.856C1306.74 898.766 1373.67 862.543 1406.2 824.284C1444.03 779.818 1478.47 673.42 1406.02 584.39C1370.72 541.001 1335.12 491.189 1301.42 439.811C1258.03 373.689 1250.52 283.798 1291.21 222.649C1322.56 175.52 1377.25 143.879 1410.48 91.1304C1436.34 50.0907 1447.69 4.09734 1447.2 -38.9003C1446.65 -86.6951 1432.82 -133.393 1407.16 -175.51" stroke="#C5D8E9" stroke-miterlimit="10"/>
<path d="M-83.0981 951.495C-68.389 867.712 -5.93394 785.946 78.0371 762C147.416 742.204 223.622 760.57 289.324 787.669C348.043 811.89 405.413 837.481 458.636 830.314C526.196 821.229 572.846 764.193 644.377 723.74C710.842 686.147 775.429 658.715 843.655 657.149C888.975 656.091 936.095 669.837 980.966 689.515C1091.83 738.132 1121.48 849.444 1217.9 871.002C1314.72 892.324 1381.14 859.469 1414.75 821.934C1453.3 778.897 1485.87 676.885 1420.11 590.029C1386.89 546.15 1353.27 495.849 1320.14 444.804C1278.47 380.581 1269.89 294.723 1306.6 234.573C1335.57 187.131 1387.5 153.825 1420.6 101.86C1446.85 60.6441 1460.11 15.2185 1461.89 -27.9162C1463.88 -76.5921 1452.46 -124.974 1428.26 -169.029" stroke="#C5D8E9" stroke-miterlimit="10"/>
<path d="M-80.125 954.824C-62.8731 869.142 -0.750528 784.615 85.1766 759.063C154.928 738.328 232.209 756.165 297.911 784.83C355.887 810.128 411.398 838.127 464.445 834.485C531.712 829.864 581.785 778.095 653.219 738.249C720.838 700.538 784.544 668.545 853.885 664.08C900.672 661.065 949.846 673.753 996.301 693.529C1103.47 739.17 1135.71 843.903 1229.5 865.147C1322.66 885.883 1388.56 856.376 1423.26 819.604C1462.51 777.997 1493.32 680.214 1434.15 595.668C1403.05 551.221 1371.36 500.49 1338.84 449.797C1298.87 387.493 1289.17 305.59 1321.97 246.498C1348.52 198.703 1397.73 163.792 1430.67 112.571C1457.29 71.198 1472.55 26.3206 1476.54 -16.9512C1481.12 -66.5081 1472.08 -116.555 1449.33 -162.568" stroke="#C5D8E9" stroke-miterlimit="10"/>
<path d="M-77.1519 958.152C-57.3571 870.551 4.4329 783.322 92.316 756.126C162.439 734.431 240.815 751.759 306.498 782.01C363.731 808.365 417.364 838.812 470.274 838.675C537.228 838.499 590.744 792.016 662.099 752.777C730.891 714.949 793.698 678.354 864.134 671.031C912.388 666.019 963.597 677.708 1011.66 697.562C1115.09 740.305 1149.94 838.381 1241.13 859.293C1330.62 879.441 1396.01 853.262 1431.8 817.254C1471.77 777.057 1500.95 683.366 1448.25 601.307C1419.31 556.233 1389.5 505.149 1357.57 454.789C1319.3 394.424 1308.44 316.398 1337.39 258.422C1361.45 210.235 1408 173.738 1440.8 123.281C1467.81 81.7317 1485.07 37.4222 1491.25 -5.96706C1498.45 -56.4051 1491.76 -108.135 1470.47 -156.087" stroke="#C5D8E9" stroke-miterlimit="10"/>
<path d="M-74.1787 961.481C-51.8216 871.981 9.61634 782.03 99.4554 753.209C169.95 730.594 249.422 747.335 315.085 779.191C371.594 806.603 423.349 839.478 476.083 842.865C542.744 847.134 599.702 805.938 670.94 767.287C740.906 729.341 802.794 688.105 874.364 677.963C924.066 670.934 977.308 681.683 1026.99 701.596C1126.67 741.519 1164.13 833.056 1252.75 853.439C1338.54 873.156 1403.42 850.149 1440.33 814.905C1480.96 776.098 1508.71 686.363 1462.32 606.926C1435.58 561.148 1407.61 509.79 1376.29 459.763C1339.72 401.317 1327.61 327.128 1352.78 270.346C1374.34 221.729 1418.25 183.685 1450.89 134.011C1478.3 92.3053 1497.57 48.5636 1505.92 5.01768C1515.76 -46.3015 1511.39 -99.6962 1491.56 -149.606" stroke="#C5D8E9" stroke-miterlimit="10"/>
<path d="M-71.186 964.79C-46.2862 873.371 14.8388 780.738 106.614 750.252C177.5 726.716 258.048 742.87 323.691 776.352C379.457 804.801 429.354 840.124 481.912 847.016C548.279 855.729 608.68 819.839 679.82 781.775C750.96 743.731 811.909 697.797 884.613 684.894C935.763 675.808 991.02 685.696 1042.35 705.609C1138.23 742.772 1178.37 827.534 1264.37 847.564C1346.5 866.694 1410.84 846.996 1448.86 812.536C1490.15 775.118 1516.66 689.201 1476.38 612.545C1451.93 565.984 1425.7 514.43 1395.01 464.736C1360.12 408.228 1346.7 337.819 1368.18 282.25C1387.15 233.163 1428.5 193.631 1461.01 144.701C1488.8 102.839 1510.12 59.6847 1520.61 15.9821C1533.13 -36.179 1531.05 -91.2967 1512.68 -143.145" stroke="#C5D8E9" stroke-miterlimit="10"/>
<path d="M-68.2129 968.119C-40.7702 874.8 20.0418 779.485 113.754 747.315C185.03 722.86 266.674 738.387 332.278 773.533C387.34 803.02 435.34 840.79 487.741 851.206C553.815 864.364 617.659 833.78 688.681 796.304C760.994 758.162 820.985 707.509 894.863 691.845C947.44 680.704 1004.71 689.789 1057.72 709.643C1149.79 744.143 1192.62 822.013 1276.03 841.71C1354.5 860.252 1418.27 843.844 1457.43 810.186C1499.38 774.12 1524.83 691.943 1490.48 618.185C1468.42 570.801 1443.83 519.11 1413.75 469.729C1380.52 415.179 1365.73 348.49 1383.59 294.175C1399.9 244.579 1438.79 203.598 1471.12 155.412C1499.31 113.412 1522.7 70.826 1535.3 26.9472C1550.53 -26.0559 1550.69 -82.877 1533.79 -136.683" stroke="#C5D8E9" stroke-miterlimit="10"/>
<path d="M-65.2397 971.447C-35.2543 876.21 25.2644 778.232 120.893 744.397C192.561 719.041 275.319 733.922 340.865 770.713C395.203 801.219 441.325 841.436 493.55 855.396C559.331 872.979 626.617 847.721 697.542 810.832C771.048 772.593 830.041 717.201 905.093 698.796C959.098 685.56 1018.38 693.92 1073.05 713.676C1161.29 745.553 1206.83 816.491 1287.63 835.856C1362.44 853.791 1425.62 840.692 1465.94 807.837C1508.54 773.121 1533.16 694.586 1504.53 623.804C1485.01 575.52 1461.89 523.75 1432.45 474.703C1400.88 422.091 1384.63 359.122 1398.96 306.08C1412.52 255.955 1449.04 213.544 1481.19 166.122C1509.79 123.966 1535.24 81.9864 1549.97 37.9118C1567.94 -15.8941 1570.33 -74.4578 1554.88 -130.222" stroke="#C5D8E9" stroke-miterlimit="10"/>
<path d="M-62.2666 974.757C-29.7188 877.601 30.4869 776.979 128.052 741.441C200.111 715.204 283.985 729.419 349.471 767.874C403.125 799.379 447.33 842.063 499.399 859.567C564.905 881.575 635.615 861.663 706.422 825.322C781.121 787.004 839.117 726.815 915.362 705.708C970.756 690.357 1032.06 698.091 1088.43 717.671C1172.81 747.002 1221.08 810.931 1299.29 829.963C1370.44 847.291 1433.04 837.462 1474.5 805.448C1517.73 772.064 1541.77 697.132 1518.65 629.405C1501.83 580.161 1480 528.391 1451.21 479.657C1421.28 429.003 1403.46 369.735 1414.4 317.965C1425.1 267.312 1459.35 223.472 1491.35 176.793C1520.33 134.481 1547.87 93.128 1564.7 48.8576C1585.41 -5.75104 1590.03 -66.077 1576.04 -123.779" stroke="#C5D8E9" stroke-miterlimit="10"/>
<path d="M-59.2935 978.085C-24.2028 879.03 35.7095 775.765 135.192 738.524C207.642 711.386 292.65 724.915 358.058 765.054C411.007 797.557 453.355 842.63 505.208 863.757C570.48 890.073 644.573 875.623 715.283 839.85C791.175 801.454 848.134 736.487 925.592 712.658C982.374 695.193 1045.69 702.359 1103.76 721.724C1184.29 748.549 1235.34 805.272 1310.9 824.127C1378.43 840.712 1440.41 834.289 1483.03 803.118C1526.89 771.046 1550.57 699.716 1532.71 635.043C1518.85 584.821 1498.05 533.09 1469.93 484.649C1441.64 435.954 1422.18 380.386 1429.79 329.889C1437.52 278.707 1469.61 233.438 1501.44 187.503C1530.84 145.054 1560.47 104.327 1579.37 59.822C1602.86 4.44978 1609.66 -57.658 1597.13 -117.318" stroke="#C5D8E9" stroke-miterlimit="10"/>
<path d="M-56.3203 981.414C-18.6869 880.44 40.932 774.551 142.311 735.587C215.172 707.568 301.315 720.393 366.626 762.235C418.909 795.717 459.34 843.296 511.017 867.948C575.996 898.708 653.551 889.584 724.124 854.379C801.21 815.924 857.112 746.121 935.822 719.629C993.993 700.049 1059.28 706.746 1119.1 725.777C1195.77 750.174 1249.56 799.77 1322.5 818.293C1386.37 834.29 1447.75 831.079 1491.54 800.788C1536.02 770.028 1559.61 702.36 1546.76 640.702C1536.08 589.501 1516.09 537.809 1488.61 489.662C1461.95 442.944 1440.74 391.116 1445.14 341.833C1449.76 290.142 1479.86 243.444 1511.51 198.233C1541.34 155.647 1573.05 115.567 1594.02 70.8263C1620.28 14.71 1629.26 -49.2187 1618.19 -110.817" stroke="#C5D8E9" stroke-miterlimit="10"/>
<path d="M-53.3472 984.742C-13.1709 881.849 46.1741 773.356 149.451 732.65C222.723 703.769 309.999 715.85 375.212 759.396C426.812 793.857 465.325 843.942 516.827 872.098C581.531 907.303 662.588 903.661 732.984 868.868C811.342 830.51 866.11 755.715 946.051 726.541C1005.57 704.807 1072.88 711.17 1134.45 729.771C1207.28 751.76 1263.8 794.209 1334.14 812.399C1394.35 827.808 1455.12 827.808 1500.09 798.399C1545.19 768.912 1568.92 705.061 1560.84 646.282C1553.66 594.141 1534.12 542.45 1507.35 494.596C1482.31 449.856 1459.29 401.806 1460.56 353.698C1461.95 301.557 1490.25 253.41 1521.62 208.904C1551.94 166.239 1585.68 126.766 1608.71 81.7517C1637.77 24.9109 1648.92 -40.8387 1639.32 -104.395" stroke="#C5D8E9" stroke-miterlimit="10"/>
<path d="M-50.374 988.051C-7.65498 883.259 51.4749 772.319 156.59 729.713C230.312 700.069 318.704 711.308 383.799 756.577C434.753 792.017 471.311 844.628 522.636 876.289C587.047 915.958 671.527 917.564 741.826 883.377C821.357 844.902 875.049 765.329 956.281 733.472C1017.15 709.585 1086.43 715.733 1149.79 733.786C1218.78 753.444 1278.02 788.688 1345.74 806.525C1402.29 821.328 1462.44 824.519 1508.6 796.03C1554.31 767.796 1578.41 707.979 1574.91 651.902C1571.58 598.919 1552.12 547.149 1526.06 499.589C1502.63 456.827 1477.73 412.654 1475.95 365.623C1473.98 313.109 1500.5 263.376 1531.74 219.615C1562.45 176.774 1598.3 138.025 1623.39 92.7169C1655.26 35.1712 1668.58 -32.4385 1660.42 -97.9336" stroke="#C5D8E9" stroke-miterlimit="10"/>
<path d="M-47.4009 991.38C-2.11948 884.669 56.6779 771.007 163.749 726.776C237.843 696.172 327.447 706.726 392.406 753.757C442.694 790.156 477.335 845.293 528.485 880.479C592.622 924.592 680.505 931.484 750.725 897.905C831.41 859.313 884.046 774.962 966.55 740.423C1028.77 714.381 1099.99 720.471 1165.16 737.838C1230.32 755.206 1292.28 783.186 1357.4 800.71C1410.27 814.925 1469.83 821.288 1517.16 793.72C1563.5 766.738 1588.15 711.229 1589.01 657.58C1589.87 603.931 1570.15 551.907 1544.8 504.621C1522.95 463.836 1496.12 423.638 1491.36 377.605C1485.91 324.818 1510.75 273.381 1541.85 230.383C1572.95 187.386 1610.94 149.342 1638.08 103.76C1672.76 45.5287 1688.24 -23.9412 1681.55 -91.3943" stroke="#C5D8E9" stroke-miterlimit="10"/>
<path d="M790.393 1385.49C734.921 1305.6 698.813 1198.44 732.476 1105.18C758.08 1034.26 821.337 980.279 889.777 951.104C947.225 926.61 1006.71 912.825 1047.65 878.482C1099.28 835.171 1115.46 766.191 1130.8 687.303C1146.4 606.986 1144.55 528.451 1178.62 460.997C1202.87 412.987 1245.85 374.004 1294.49 345.084C1379.03 294.861 1466.5 310.231 1534.08 257.502C1597.67 207.887 1624.86 147.874 1623.18 96.222C1621.38 40.9085 1573.34 -30.441 1494.4 -49.8644C1443.68 -62.3368 1388.01 -75.5337 1330.74 -82.9937C1267.44 -91.2369 1206.26 -121.488 1175.16 -169.459C1146.76 -213.259 1139.21 -269.278 1121.95 -324.689C1106.91 -372.993 1088.41 -417.91 1062.14 -455.249C1030.41 -500.341 986.267 -536.075 933.787 -556.595" stroke="#C5D8E9" stroke-miterlimit="10"/>
<path d="M794.833 1385.23C739.478 1302.15 701.082 1193.56 734.667 1097.76C759.821 1025.96 823.254 970.723 892.966 942.626C950.765 919.326 1010.97 908.557 1054.57 876.543C1109.48 836.228 1131.95 767.914 1147.66 689.457C1163.93 608.141 1157.77 527.412 1190.45 457.336C1213.98 406.917 1257.64 365.897 1307.27 335.607C1387.36 286.735 1471.14 295.644 1536.84 244.736C1597.67 197.607 1627.05 140.101 1626.74 88.0569C1626.41 33.0762 1580.68 -35.3362 1507.64 -57.3442C1457.8 -72.362 1403.03 -86.7533 1346.39 -94.507C1285.65 -102.829 1226.42 -129.594 1194.11 -174.021C1163.58 -216.001 1153.43 -271.06 1136.64 -325.884C1121.74 -374.599 1105 -420.769 1079.9 -459.85C1049.25 -507.586 1005.16 -546.139 952.056 -569.028" stroke="#C5D8E9" stroke-miterlimit="10"/>
<path d="M799.293 1385C744.036 1298.75 703.41 1188.73 736.857 1090.34C761.562 1017.68 825.19 961.129 896.154 934.147C954.286 912.022 1015.24 904.288 1061.48 874.624C1119.65 837.305 1148.44 769.656 1164.52 691.649C1181.48 609.374 1170.95 526.414 1202.29 453.693C1225.06 400.867 1269.48 357.869 1320.04 326.169C1395.74 278.707 1475.76 281.076 1539.58 232.009C1597.65 187.347 1629.22 132.346 1630.26 79.9308C1631.36 25.283 1588.07 -40.4079 1520.84 -64.8045C1471.96 -82.544 1418 -97.9339 1361.99 -106.001C1303.8 -114.381 1246.49 -137.623 1213.05 -178.584C1180.28 -218.664 1167.61 -272.842 1151.29 -327.059C1136.53 -376.185 1121.58 -423.588 1097.62 -464.432C1068.09 -514.812 1024 -556.204 970.306 -581.442" stroke="#C5D8E9" stroke-miterlimit="10"/>
<path d="M803.753 1384.76C748.613 1295.32 705.737 1183.89 739.048 1082.94C763.322 1009.41 827.107 951.555 899.342 925.67C957.827 904.719 1019.44 899.903 1068.38 872.687C1129.76 838.245 1164.93 771.38 1181.38 693.804C1199.02 610.55 1184.12 525.396 1214.1 450.033C1236.09 394.778 1281.33 349.881 1332.77 316.693C1404.13 270.66 1480.25 266.372 1542.28 219.243C1597.5 176.95 1631.32 124.574 1633.76 71.7863C1636.27 17.4714 1595.58 -45.6937 1534.03 -72.2638C1486.22 -92.9011 1432.94 -109.094 1377.58 -117.494C1321.96 -125.933 1266.48 -145.552 1231.94 -183.145C1196.93 -221.228 1181.81 -274.643 1165.96 -328.253C1151.33 -377.79 1138.19 -426.427 1115.36 -469.033C1086.96 -522.056 1042.85 -566.267 988.555 -593.875" stroke="#C5D8E9" stroke-miterlimit="10"/>
<path d="M808.193 1384.53C753.151 1291.89 708.065 1179.05 741.239 1075.54C765.082 1001.13 829.024 941.96 902.511 917.211C961.328 897.396 1023.7 895.653 1075.26 870.787C1139.93 839.361 1181.42 773.141 1198.22 696.016C1216.57 611.783 1197.26 524.436 1225.92 446.43C1247.1 388.766 1293.24 342.029 1345.53 307.275C1412.56 262.73 1484.87 251.844 1545 206.535C1597.46 166.729 1633.41 116.839 1637.26 63.6797C1641.17 9.69768 1603.27 -51.0982 1547.21 -79.7046C1500.66 -103.455 1447.86 -120.235 1393.19 -128.968C1340.11 -137.446 1286.47 -153.365 1250.87 -187.669C1213.53 -223.657 1196.01 -276.405 1180.65 -329.408C1166.18 -379.357 1154.85 -429.208 1133.12 -473.595C1105.9 -529.261 1061.75 -576.312 1006.84 -606.27" stroke="#C5D8E9" stroke-miterlimit="10"/>
<path d="M812.652 1384.29C757.728 1288.49 710.432 1174.22 743.429 1068.13C766.843 992.868 830.941 932.346 905.699 908.752C964.868 890.073 1027.99 891.424 1082.17 868.868C1150.12 840.438 1198.06 774.903 1215.06 698.189C1234.29 613.035 1210.37 523.437 1237.73 442.787C1258.11 382.736 1305.21 334.216 1358.28 297.817C1421.03 254.78 1489.49 237.276 1547.72 193.789C1597.42 156.469 1635.5 109.046 1640.78 55.5538C1646.08 1.88499 1611.23 -56.6396 1560.41 -87.1453C1515.33 -114.244 1462.83 -131.376 1408.8 -140.462C1358.28 -148.959 1306.44 -161.099 1269.79 -192.231C1230.06 -225.967 1210.31 -278.226 1195.3 -330.603C1181.06 -381.002 1171.48 -432.027 1150.86 -478.197C1124.81 -536.487 1080.6 -586.377 1025.09 -618.703" stroke="#C5D8E9" stroke-miterlimit="10"/>
<path d="M817.092 1384.06C762.266 1285.06 712.935 1169.42 745.601 1060.71C768.701 984.625 832.819 922.694 908.868 900.275C968.369 882.731 1032.25 887.156 1089.07 866.949C1160.31 841.535 1214.49 776.647 1231.92 700.363C1251.79 614.211 1223.47 522.459 1249.54 439.127C1269.08 376.666 1317.28 326.483 1371.01 288.361C1429.54 246.851 1494.1 222.709 1550.42 181.043C1597.38 146.21 1637.54 101.254 1644.27 47.4091C1650.94 -5.94639 1619.44 -62.2389 1573.58 -94.6242C1530.23 -125.228 1477.73 -142.478 1424.37 -151.935C1376.39 -160.433 1326.4 -168.695 1288.68 -196.773C1246.55 -228.121 1224.45 -279.988 1209.94 -331.777C1195.81 -382.568 1188.11 -434.827 1168.57 -482.778C1143.72 -543.691 1099.42 -596.44 1043.3 -631.116" stroke="#C5D8E9" stroke-miterlimit="10"/>
<path d="M821.552 1383.8C766.843 1281.61 715.165 1164.53 747.811 1053.29C770.403 976.304 834.755 913.021 912.056 891.777C971.91 875.33 1036.54 882.868 1095.98 864.991C1170.5 842.592 1230.94 778.33 1248.78 702.516C1269.28 615.385 1236.58 521.46 1261.38 435.465C1280.08 370.616 1329.45 318.846 1383.78 278.884C1438.12 238.921 1498.74 208.121 1553.17 168.276C1597.38 135.93 1639.63 93.4414 1647.83 39.244C1655.84 -13.8178 1628.07 -67.8195 1586.82 -102.104C1545.59 -136.389 1492.71 -153.599 1440.02 -163.448C1394.58 -171.946 1346.46 -176.214 1307.64 -201.336C1263.12 -230.157 1238.63 -281.77 1224.64 -332.952C1210.66 -384.154 1204.83 -437.627 1186.35 -487.36C1162.74 -550.897 1118.34 -606.485 1061.61 -643.53" stroke="#C5D8E9" stroke-miterlimit="10"/>
</g>
</g>
<g clip-path="url(#clip2_1_1049)">
<mask id="mask1_1_1049" style="mask-type:luminance" maskUnits="userSpaceOnUse" x="-602" y="-311" width="1658" height="1300">
<path d="M-369.306 988.629L1055.65 639.944L822.959 -311L-602 37.6847L-369.306 988.629Z" fill="white"/>
</mask>
<g mask="url(#mask1_1_1049)">
<path d="M649.393 -280.159C629.864 -232.001 607.446 -185.031 582.308 -139.552C571.124 -119.339 559.067 -98.9924 541.291 -84.2413C495.889 -46.5233 428.312 -55.8094 372.284 -74.4325C320.686 -91.5793 271.147 -114.874 225.051 -143.688C179.361 -172.239 136.218 -206.593 85.1508 -223.709C34.0645 -240.82 -29.1848 -236.288 -64.5525 -195.664C-85.5996 -171.485 -93.6205 -137.935 -91.9272 -105.916C-90.2293 -73.8773 -79.6493 -42.9843 -67.1651 -13.4442C-52.8653 20.3887 -35.5379 55.0731 -38.3594 91.6845C-41.2676 129.587 -67.9598 164.601 -103.708 177.421C-154.564 195.65 -209.364 170.518 -260.361 152.62C-325.146 129.891 -396.718 118.679 -462.352 138.812C-527.972 158.92 -585.257 216.136 -589.639 284.716" stroke="#C5D8E9" stroke-miterlimit="10"/>
<path d="M639.15 -292.146C620.009 -244.789 597.804 -198.677 572.827 -154.185C561.717 -134.413 549.728 -114.527 532.276 -100.016C497.219 -70.8772 448.982 -69.5152 403.228 -78.5778C390.766 -81.0316 378.475 -84.2728 366.688 -87.9198C316.004 -103.637 267.207 -125.461 221.635 -152.71C176.483 -179.719 133.837 -212.703 83.4579 -228.899C55.2201 -237.974 23.6048 -241.184 -5.48342 -236.041C-30.8253 -231.553 -54.3622 -220.513 -71.6045 -201.276C-74.6904 -197.84 -77.5068 -194.208 -80.0631 -190.417C-95.8546 -166.98 -101.688 -137.413 -100.434 -108.914C-100.027 -99.7616 -98.9549 -90.6908 -97.3798 -81.7029C-93.2546 -58.2611 -85.7584 -35.3619 -77.5375 -13.2045C-64.5203 21.9703 -49.9257 57.6661 -54.1527 94.5408C-58.3596 131.169 -83.87 165.088 -118.721 177.788C-168.309 195.849 -221.667 172.581 -271.202 156.461C-275.095 155.197 -279.042 153.965 -282.974 152.791C-342.668 134.984 -406.964 128.241 -465.792 147.797C-528.531 168.652 -582.793 224.886 -586.105 291.672" stroke="#C5D8E9" stroke-miterlimit="10"/>
<path d="M628.907 -304.133C610.135 -257.572 588.177 -212.347 563.327 -168.813C552.295 -149.463 540.351 -130.052 523.223 -115.782C488.813 -87.1236 441.721 -85.0339 396.939 -93.0039C384.732 -95.1572 372.682 -98.0742 361.097 -101.388C311.321 -115.695 263.254 -136.024 218.224 -161.712C173.611 -187.18 131.432 -218.747 81.7889 -234.074C52.5782 -243.093 20.096 -246.554 -9.99691 -241.649C-36.1348 -237.37 -60.6582 -226.41 -78.6372 -206.893C-81.8515 -203.405 -84.8106 -199.697 -87.5002 -195.794C-104.063 -171.805 -110.001 -141.345 -108.955 -111.889C-108.615 -102.437 -107.611 -93.0678 -106.132 -83.8144C-102.272 -59.6427 -95.3298 -35.8822 -87.9049 -12.9454C-76.1939 23.5569 -64.2609 60.2265 -69.9366 97.4356C-75.3281 132.761 -99.7469 165.626 -133.7 178.208C-182.021 196.1 -233.936 174.696 -282.009 160.355C-285.789 159.224 -289.618 158.145 -293.437 157.104C-351.309 141.392 -413.1 136.576 -469.241 156.825C-529.085 178.403 -580.34 233.679 -582.58 298.671" stroke="#C5D8E9" stroke-miterlimit="10"/>
<path d="M618.687 -316.106C600.28 -270.359 578.553 -225.997 553.87 -183.431C542.892 -164.518 531.036 -145.571 514.208 -131.556C480.422 -103.393 434.498 -100.561 390.664 -107.453C378.689 -109.32 366.883 -111.894 355.501 -114.874C306.639 -127.752 259.3 -146.586 214.808 -170.733C170.733 -194.66 128.989 -224.78 80.096 -239.263C49.8982 -248.202 16.5633 -251.938 -14.5153 -247.276C-41.4493 -243.205 -66.9735 -232.303 -85.6892 -212.504C-89.0508 -208.96 -92.1336 -205.182 -94.9423 -201.189C-112.253 -176.634 -118.299 -145.301 -117.461 -114.887C-117.194 -105.155 -116.258 -95.487 -114.89 -85.9445C-111.289 -61.0239 -104.892 -36.4447 -98.2773 -12.7049C-87.849 25.1393 -78.5579 62.6974 -85.7299 100.293C-92.211 134.292 -115.638 166.109 -148.713 178.576C-195.766 196.299 -246.239 176.76 -292.849 164.198C-296.516 163.2 -300.212 162.25 -303.932 161.366C-359.998 147.772 -419.284 144.883 -472.7 165.815C-529.648 188.116 -577.876 242.43 -579.045 305.628" stroke="#C5D8E9" stroke-miterlimit="10"/>
<path d="M608.445 -328.093C590.425 -283.146 568.912 -239.643 544.375 -198.04C533.475 -179.549 521.678 -161.101 505.178 -147.307C472.036 -119.644 427.261 -116.066 384.376 -121.879C372.655 -123.446 361.071 -125.691 349.91 -128.342C301.957 -139.81 255.346 -157.149 211.397 -179.735C167.88 -202.125 126.56 -230.757 78.4272 -244.439C47.2421 -253.297 13.0592 -257.289 -19.0097 -252.889C-46.7444 -249.045 -73.2504 -238.205 -92.6982 -218.106C-96.1881 -214.511 -99.4136 -210.657 -102.341 -206.575C-120.418 -181.449 -126.568 -149.224 -125.92 -117.856C-125.702 -107.831 -124.858 -97.8778 -123.581 -88.051C-120.263 -62.3958 -114.387 -36.9836 -108.564 -12.4454C-99.4183 26.7406 -92.7216 65.1351 -101.419 103.164C-108.909 135.838 -131.439 166.629 -163.603 178.954C-209.388 196.507 -258.413 178.852 -303.565 168.05C-307.115 167.205 -310.698 166.388 -314.286 165.633C-368.53 154.133 -425.329 153.175 -476.04 174.796C-530.092 197.82 -575.313 251.176 -575.411 312.58" stroke="#C5D8E9" stroke-miterlimit="10"/>
<path d="M598.202 -340.08C580.551 -295.929 559.265 -253.308 534.875 -212.669C524.048 -194.619 512.32 -176.631 496.12 -163.092C463.602 -135.924 419.995 -131.603 378.058 -136.339C366.593 -137.605 355.249 -139.526 344.286 -141.863C297.246 -151.901 251.378 -167.769 207.972 -188.795C164.997 -209.624 124.102 -236.768 76.7485 -249.652C44.5809 -258.411 9.54059 -262.697 -23.514 -258.539C-52.0447 -254.904 -79.5371 -244.145 -99.7405 -223.761C-103.378 -220.109 -106.727 -216.185 -109.793 -212.008C-128.641 -186.332 -134.876 -153.219 -134.455 -120.888C-134.31 -110.583 -133.529 -100.312 -132.367 -90.2152C-129.314 -63.8301 -123.935 -37.5705 -118.96 -12.22C-111.021 28.2893 -106.938 67.5249 -117.236 106.006C-125.64 137.331 -147.354 167.096 -178.616 179.322C-223.134 196.706 -270.715 180.914 -314.406 171.891C-317.842 171.18 -321.307 170.516 -324.782 169.895C-377.205 160.488 -431.513 161.481 -479.499 183.786C-530.675 207.537 -572.845 259.945 -571.895 319.54" stroke="#C5D8E9" stroke-miterlimit="10"/>
<path d="M587.959 -352.067C570.678 -308.712 549.623 -266.953 525.395 -227.301C514.641 -209.693 502.981 -192.165 487.086 -178.862C455.21 -152.194 412.753 -147.126 371.77 -150.765C360.54 -151.726 349.436 -153.322 338.676 -155.326C292.545 -163.953 247.405 -178.327 204.547 -197.773C162.11 -217.061 121.63 -242.674 75.0461 -254.799C41.8769 -263.454 5.97931 -268.034 -28.0419 -264.124C-57.3734 -260.716 -85.8476 -250.019 -106.802 -229.33C-110.582 -225.603 -114.06 -221.628 -117.244 -217.361C-136.84 -191.118 -143.202 -157.128 -142.972 -123.843C-142.894 -113.239 -142.185 -102.689 -141.115 -92.3075C-138.321 -65.1734 -133.488 -38.0951 -129.323 -11.9416C-122.662 29.9286 -121.049 69.93 -133.02 108.901C-142.234 138.893 -163.231 167.635 -193.619 179.728C-236.87 196.943 -283.009 183.016 -325.232 175.79C-328.555 175.213 -331.902 174.701 -335.244 174.209C-385.86 166.92 -437.668 169.821 -482.948 192.814C-531.224 217.307 -570.392 268.738 -568.37 326.539" stroke="#C5D8E9" stroke-miterlimit="10"/>
<path d="M577.72 -364.035C560.827 -321.481 539.981 -280.6 515.9 -241.911C505.205 -224.72 493.628 -207.676 478.038 -194.608C446.786 -168.436 405.478 -162.622 365.462 -165.187C354.487 -165.847 343.619 -167.139 333.066 -168.79C287.848 -175.988 243.436 -188.866 201.117 -206.772C159.218 -224.518 119.143 -248.557 73.358 -259.97C39.1729 -268.497 2.45138 -273.4 -32.5555 -269.732C-62.683 -266.533 -92.1581 -255.893 -113.835 -234.947C-117.743 -231.168 -121.363 -227.118 -124.667 -222.762C-145.034 -195.967 -151.477 -161.07 -151.459 -126.847C-151.449 -115.944 -150.813 -105.114 -149.853 -94.4432C-147.343 -66.5746 -143.026 -38.6443 -139.676 -11.7068C-134.298 31.5054 -135.094 72.2777 -148.794 111.753C-158.737 140.411 -179.122 168.117 -208.594 180.085C-250.558 197.127 -295.273 185.069 -336.034 179.622C-339.239 179.197 -342.478 178.8 -345.702 178.46C-394.497 173.266 -443.813 178.118 -486.369 201.795C-531.75 227.01 -567.89 277.479 -564.797 333.486" stroke="#C5D8E9" stroke-miterlimit="10"/>
<path d="M567.496 -376.026C550.972 -334.268 530.358 -294.25 506.442 -256.528C495.821 -239.778 484.313 -223.195 469.042 -210.387C438.413 -184.71 398.274 -178.234 359.225 -179.645C348.5 -180.024 337.858 -180.968 327.508 -182.285C283.199 -188.073 239.516 -199.456 197.739 -215.801C156.379 -232.007 116.695 -254.448 71.703 -265.168C36.521 -273.572 -1.0388 -278.774 -37.036 -275.368C-67.9643 -272.396 -98.421 -261.819 -120.849 -240.567C-124.905 -236.733 -128.644 -232.592 -132.09 -228.161C-153.205 -200.801 -159.775 -165.026 -159.966 -129.844C-160.029 -118.662 -159.46 -107.533 -158.592 -96.5777C-156.341 -67.9602 -152.569 -39.2111 -150.011 -11.4753C-145.915 33.0788 -149.044 74.6034 -164.545 114.62C-175.136 141.945 -194.966 168.628 -223.54 180.478C-264.237 197.35 -307.509 187.156 -346.808 183.489C-349.9 183.197 -353.001 182.948 -356.113 182.742C-403.086 179.642 -449.897 186.42 -489.766 210.79C-532.251 236.728 -565.384 286.239 -561.22 340.453" stroke="#C5D8E9" stroke-miterlimit="10"/>
<path d="M557.254 -388.013C541.099 -347.05 520.73 -307.919 496.943 -271.156C486.399 -254.829 474.955 -238.724 459.989 -226.152C430.003 -200.976 391.013 -193.753 352.913 -194.085C342.443 -194.164 332.041 -194.784 321.893 -195.767C278.498 -200.126 235.557 -210.038 194.304 -224.818C153.487 -239.463 114.194 -260.306 70.0106 -270.358C33.7984 -278.611 -4.57115 -284.159 -41.5731 -280.99C-73.2973 -278.227 -104.741 -267.731 -127.924 -246.194C-132.108 -242.307 -136.009 -238.087 -139.556 -233.571C-161.437 -205.64 -168.092 -168.977 -168.496 -132.857C-168.607 -121.38 -168.126 -109.947 -167.373 -98.7225C-165.387 -69.3751 -162.15 -39.7695 -160.406 -11.2496C-157.593 34.6463 -162.97 76.9427 -180.361 117.462C-191.515 143.473 -210.899 169.1 -238.577 180.831C-278.006 197.535 -319.849 189.229 -357.671 187.316C-360.65 187.158 -363.634 187.062 -366.632 186.989C-411.803 185.988 -456.104 194.712 -493.248 219.766C-532.857 246.431 -562.963 294.98 -557.728 347.399" stroke="#C5D8E9" stroke-miterlimit="10"/>
<path d="M547.011 -400C531.244 -359.838 511.088 -321.565 487.443 -285.785C476.954 -269.894 465.597 -254.254 450.931 -241.937C421.574 -217.237 383.743 -209.31 346.601 -208.526C336.38 -208.323 326.205 -208.595 316.259 -209.245C273.774 -212.194 231.561 -220.611 190.851 -233.83C150.591 -246.939 111.66 -266.137 68.2799 -275.539C31.061 -283.626 -8.14177 -289.534 -46.1293 -286.608C-78.6543 -284.072 -111.075 -273.619 -134.995 -251.801C-139.326 -247.858 -143.351 -243.568 -147.017 -238.962C-169.669 -210.48 -176.428 -172.925 -177.017 -135.832C-177.201 -124.075 -176.787 -112.344 -176.144 -100.83C-174.437 -70.7287 -171.745 -40.3044 -170.793 -10.9861C-169.281 36.2564 -176.802 79.3392 -196.169 120.342C-207.839 145.069 -226.8 169.624 -253.585 181.218C-291.746 197.752 -332.147 191.31 -368.488 191.172C-371.349 191.167 -374.224 191.185 -377.085 191.26C-420.43 192.372 -462.249 203.009 -496.688 228.751C-533.397 256.158 -560.481 303.725 -554.174 354.35" stroke="#C5D8E9" stroke-miterlimit="10"/>
<path d="M536.772 -411.968C521.375 -372.602 501.446 -335.211 477.972 -300.379C467.556 -284.929 456.263 -269.769 441.925 -257.674C413.211 -233.473 376.529 -224.799 340.336 -222.938C330.351 -222.43 320.416 -222.377 310.687 -222.718C269.115 -224.237 227.63 -231.159 187.482 -242.823C147.761 -254.39 109.22 -271.91 66.6534 -280.704C28.4136 -288.602 -11.6224 -294.87 -50.5813 -292.211C-83.9023 -289.883 -117.328 -279.507 -141.981 -257.388C-146.459 -253.39 -150.607 -249.029 -154.406 -244.309C-177.806 -215.261 -184.674 -176.833 -185.49 -138.777C-185.742 -126.722 -185.401 -114.711 -184.85 -102.912C-183.407 -72.0813 -181.25 -40.8003 -181.113 -10.6981C-180.884 37.8863 -190.496 81.8035 -211.891 123.242C-224.011 146.708 -242.62 170.149 -268.503 181.643C-305.397 198.008 -344.355 193.431 -379.233 195.072C-381.981 195.2 -384.738 195.371 -387.486 195.579C-429.009 198.786 -468.338 211.373 -500.052 237.799C-533.865 265.928 -557.942 312.538 -550.564 361.369" stroke="#C5D8E9" stroke-miterlimit="10"/>
<path d="M526.529 -423.955C511.52 -385.39 491.799 -348.876 468.472 -315.008C458.134 -299.98 446.905 -285.299 432.872 -273.439C404.782 -249.734 369.249 -240.314 334.023 -237.379C324.293 -236.57 314.599 -236.193 305.053 -236.196C264.39 -236.304 223.633 -241.732 184.028 -251.835C144.845 -261.861 106.672 -277.717 64.9413 -285.889C25.6663 -293.574 -15.1743 -300.251 -55.1189 -297.834C-89.2406 -295.733 -123.648 -285.419 -149.037 -263.02C-153.644 -258.97 -157.935 -254.533 -161.853 -249.724C-186.02 -220.106 -192.991 -180.785 -194.002 -141.795C-194.326 -129.46 -194.048 -117.131 -193.612 -105.062C-192.434 -73.5015 -190.878 -41.3879 -191.49 -10.4776C-192.644 39.453 -204.134 84.2531 -227.689 126.079C-240.197 148.289 -258.531 170.635 -283.521 181.991C-319.147 198.188 -356.662 195.474 -390.078 198.894C-392.713 199.156 -395.352 199.479 -397.968 199.817C-437.67 205.117 -474.512 219.636 -503.52 246.75C-534.439 275.602 -555.488 321.25 -547.058 368.291" stroke="#C5D8E9" stroke-miterlimit="10"/>
<path d="M516.286 -435.942C501.646 -398.172 482.157 -362.522 458.991 -329.64C448.707 -315.049 437.566 -300.833 423.833 -289.228C396.386 -266.023 362.003 -255.856 327.729 -251.823C318.255 -250.714 308.777 -250.028 299.457 -249.682C259.703 -248.381 219.694 -252.318 180.613 -260.856C141.968 -269.34 104.17 -283.495 63.2487 -291.079C22.9574 -298.555 -18.7069 -305.635 -59.6371 -303.461C-94.5549 -301.569 -129.949 -291.335 -156.089 -268.631C-160.843 -264.525 -165.258 -260.018 -169.295 -255.119C-194.233 -224.949 -201.289 -184.741 -202.508 -144.793C-202.882 -132.164 -202.695 -119.55 -202.35 -107.197C-201.432 -74.8874 -200.436 -41.9315 -201.825 -10.2465C-204.279 41.0306 -217.634 86.7707 -243.444 128.927C-256.307 149.934 -274.379 171.127 -298.477 182.345C-332.835 198.373 -368.907 197.524 -400.861 202.722C-403.378 203.136 -405.909 203.574 -408.407 204.065C-446.306 211.464 -480.639 227.928 -506.941 255.731C-534.983 285.311 -553.006 329.996 -543.485 375.238" stroke="#C5D8E9" stroke-miterlimit="10"/>
<path d="M506.062 -447.934C491.791 -410.96 472.53 -376.191 449.51 -344.273C439.304 -330.104 428.227 -316.367 414.818 -305.003C387.995 -282.293 354.78 -271.384 321.474 -266.278C312.235 -264.863 303.017 -263.857 293.899 -263.179C255.059 -260.447 215.773 -262.909 177.235 -269.887C139.133 -276.81 101.693 -289.258 61.613 -296.282C20.2957 -303.508 -22.1778 -311.014 -64.0984 -309.102C-99.7933 -307.423 -136.188 -297.247 -163.089 -274.276C-167.967 -270.099 -172.529 -265.536 -176.704 -260.543C-202.389 -229.807 -209.568 -188.702 -211.001 -147.815C-211.446 -134.906 -211.327 -121.993 -211.093 -109.351C-210.458 -76.3071 -209.983 -42.5181 -212.182 -10.0301C-215.92 42.5889 -231.054 89.3691 -259.223 131.76C-272.393 151.592 -290.256 171.585 -313.475 182.69C-346.566 198.548 -381.191 199.582 -411.687 206.54C-414.09 207.088 -416.484 207.674 -418.869 208.298C-454.943 217.81 -486.774 236.182 -510.371 264.674C-535.517 294.976 -550.513 338.699 -539.941 382.152" stroke="#C5D8E9" stroke-miterlimit="10"/>
<path d="M495.824 -459.901C481.936 -423.747 462.892 -389.818 440.02 -358.862C429.887 -345.135 418.879 -331.858 405.774 -320.73C379.594 -298.52 347.514 -286.84 315.171 -280.68C306.186 -278.965 297.19 -277.63 288.275 -276.618C250.343 -272.476 211.791 -273.424 173.791 -278.86C136.227 -284.243 99.1676 -294.969 59.8915 -301.424C17.5292 -308.394 -25.7392 -316.351 -68.6455 -314.681C-105.141 -313.229 -142.536 -303.111 -170.15 -279.845C-175.175 -275.612 -179.861 -270.978 -184.155 -265.896C-210.611 -234.608 -217.875 -192.616 -219.512 -150.751C-220.026 -137.543 -219.979 -124.351 -219.837 -111.425C-219.461 -77.6313 -219.526 -43.0046 -222.541 -9.73255C-227.561 44.2283 -244.375 92.1251 -274.998 134.693C-288.461 153.408 -306.142 172.167 -328.446 183.148C-360.269 198.837 -393.451 201.736 -422.485 210.473C-424.775 211.154 -427.051 211.893 -429.322 212.65C-463.575 224.257 -492.916 244.579 -513.806 273.759C-536.053 304.803 -548.046 347.549 -536.402 389.208" stroke="#C5D8E9" stroke-miterlimit="10"/>
<path d="M485.581 -471.888C472.063 -436.53 453.265 -403.487 430.539 -373.495C420.461 -360.205 409.54 -347.393 396.736 -336.519C371.179 -314.805 340.267 -302.383 308.873 -295.144C300.143 -293.129 291.387 -291.47 282.675 -290.124C245.656 -284.553 207.827 -284.025 170.389 -287.906C133.383 -291.751 96.6711 -300.728 58.2322 -306.642C14.8343 -313.318 -29.2384 -321.764 -73.1493 -320.332C-110.441 -319.089 -148.823 -309.052 -177.192 -285.5C-182.365 -281.21 -187.174 -276.506 -191.587 -271.334C-218.791 -239.48 -226.183 -196.61 -228.009 -153.792C-228.59 -140.285 -228.612 -126.794 -228.584 -113.598C-228.473 -79.0748 -229.079 -43.6105 -232.903 -9.53544C-239.21 45.7483 -257.587 94.9143 -290.781 137.507C-304.496 155.114 -322.024 172.606 -343.43 183.468C-373.967 198.984 -405.724 203.751 -433.296 214.267C-435.468 215.101 -437.631 215.973 -439.77 216.859C-472.22 230.565 -499.056 252.814 -517.221 282.678C-536.573 314.445 -545.558 356.233 -532.843 396.098" stroke="#C5D8E9" stroke-miterlimit="10"/>
<path d="M475.338 -483.876C462.188 -449.313 443.623 -417.134 421.039 -388.124C411.039 -375.255 400.182 -362.923 387.682 -352.285C362.749 -331.066 333.011 -317.883 302.565 -309.566C294.09 -307.25 285.555 -305.262 277.04 -303.602C240.931 -296.621 203.83 -294.598 166.94 -296.899C130.472 -299.203 94.1312 -306.417 56.5294 -311.79C12.1005 -318.153 -32.7953 -327.083 -77.6776 -325.917C-115.77 -324.901 -155.134 -314.926 -184.254 -291.069C-189.555 -286.728 -194.507 -281.949 -199.058 -276.682C-227.029 -244.258 -234.505 -200.501 -236.564 -156.739C-237.198 -142.957 -237.307 -129.163 -237.371 -115.682C-237.539 -80.4049 -238.688 -44.1218 -243.285 -9.25301C-250.894 47.3773 -270.724 97.927 -306.566 140.401C-320.536 156.962 -337.901 173.145 -358.433 183.874C-387.703 199.22 -418.018 205.852 -444.127 218.147C-446.186 219.114 -448.236 220.12 -450.257 221.159C-480.881 236.977 -505.23 261.158 -520.69 291.711C-537.165 324.205 -543.105 365.026 -529.319 403.097" stroke="#C5D8E9" stroke-miterlimit="10"/>
<path d="M465.1 -495.843C452.339 -462.081 433.981 -430.779 411.568 -402.718C401.641 -390.291 390.848 -378.438 378.672 -368.04C354.387 -347.302 325.807 -333.334 296.295 -323.996C288.061 -321.356 279.762 -319.063 271.468 -317.074C236.273 -308.664 199.915 -305.169 163.548 -305.906C127.618 -306.668 91.6535 -312.099 54.8606 -316.965C9.38633 -322.991 -36.3041 -332.452 -82.1719 -331.529C-121.06 -330.721 -161.406 -320.809 -191.263 -296.671C-196.711 -292.274 -201.806 -287.419 -206.457 -282.068C-235.199 -249.092 -242.779 -204.442 -245.027 -159.727C-245.73 -145.646 -245.911 -131.572 -246.085 -117.802C-246.517 -81.7954 -248.203 -44.6557 -253.615 -9.00283C-262.506 48.9693 -283.691 101.06 -322.316 143.268C-336.537 158.802 -353.768 173.641 -373.38 184.266C-401.382 199.443 -430.253 207.939 -454.901 222.013C-456.842 223.133 -458.778 224.272 -460.682 225.464C-489.484 243.377 -511.347 269.489 -524.082 300.725C-537.662 333.942 -540.594 373.805 -525.736 410.082" stroke="#C5D8E9" stroke-miterlimit="10"/>
<path d="M454.876 -507.835C442.484 -474.868 424.358 -444.43 402.087 -417.351C392.219 -405.341 381.509 -393.972 369.638 -383.81C345.976 -363.567 318.565 -348.857 290.002 -338.441C282.022 -335.501 273.958 -332.903 265.853 -330.557C231.567 -320.736 195.942 -315.727 160.113 -314.922C124.726 -314.125 89.1327 -317.792 53.1677 -322.154C6.65735 -327.806 -39.8368 -337.837 -86.6904 -337.156C-126.38 -336.576 -167.726 -326.721 -198.32 -302.302C-203.896 -297.853 -209.129 -292.904 -213.904 -287.482C-243.393 -253.941 -251.077 -208.399 -253.538 -162.744C-254.314 -148.384 -254.558 -133.992 -254.828 -119.956C-255.525 -83.2197 -257.75 -45.2424 -263.973 -8.78649C-274.147 50.5276 -296.606 104.321 -338.095 146.101C-352.554 160.665 -369.64 174.119 -388.359 184.605C-415.098 199.594 -442.537 209.997 -465.708 225.827C-467.535 227.08 -469.335 228.367 -471.125 229.692C-498.125 249.704 -517.478 277.762 -527.508 309.687C-538.192 343.626 -538.097 382.527 -522.187 417.014" stroke="#C5D8E9" stroke-miterlimit="10"/>
<path d="M444.633 -519.822C432.629 -487.656 414.711 -458.094 392.588 -431.979C382.793 -420.41 372.151 -409.501 360.585 -399.575C337.566 -379.832 311.285 -364.371 283.709 -352.886C275.984 -349.645 268.141 -346.718 260.258 -344.043C226.885 -332.793 191.983 -326.309 156.698 -323.943C121.849 -321.604 86.617 -323.465 51.4752 -327.344C3.91917 -332.579 -43.3691 -343.221 -91.2084 -342.783C-131.694 -342.411 -174.026 -332.637 -205.352 -307.918C-211.076 -303.413 -216.433 -298.393 -221.341 -292.859C-251.601 -258.765 -259.389 -212.331 -262.059 -165.718C-262.902 -151.059 -263.219 -136.387 -263.6 -122.063C-264.575 -84.5727 -267.326 -45.7813 -274.359 -8.52244C-285.835 52.1382 -309.484 107.815 -353.902 148.981C-368.627 162.623 -385.546 174.624 -403.386 184.997C-428.858 199.817 -454.853 212.084 -476.562 229.692C-478.276 231.08 -479.963 232.5 -481.635 233.978C-506.814 256.084 -523.661 286.068 -530.985 318.682C-538.769 353.363 -535.671 391.287 -518.671 423.976" stroke="#C5D8E9" stroke-miterlimit="10"/>
<path d="M434.39 -531.809C407.342 -458.912 347.67 -400.507 277.415 -367.331C207.159 -334.155 127.126 -324.891 49.8012 -332.538C1.20408 -337.337 -46.8785 -348.591 -95.708 -348.415C-144.538 -348.239 -196.211 -334.667 -228.769 -298.278C-269.535 -252.724 -270.345 -185.34 -272.339 -124.198C-275.587 -23.6629 -293.13 86.6792 -369.658 151.828C-407.771 184.276 -457.293 202.199 -492.05 238.239C-540.234 288.209 -550.145 370.982 -515.094 430.941" stroke="#C5D8E9" stroke-miterlimit="10"/>
<path d="M898.308 -351.671C922.129 -288.964 871.719 -218.716 809.868 -192.918C748.012 -167.138 678.417 -172.08 611.44 -169.781C544.462 -167.482 471.683 -154.33 427.624 -103.798C371.301 -39.1982 380.23 65.5131 321.237 127.682C275.262 176.143 201.649 183.009 139.344 170.578C104.118 163.556 71.1553 145.295 36.7112 135.38C-119.515 90.4379 -168 -67.6272 -290.264 -63.0677C-422.659 -58.1055 -476.002 20.1574 -489.351 68.6375C-506.451 130.755 -522.556 284.992 -373.936 353.082C-313.563 380.74 -253.17 411.196 -203.069 454.814C-128.049 520.111 -98.9044 640.86 -154.171 723.524C-192.063 780.167 -263.056 814.854 -282.202 880.294C-295.064 924.261 -279.873 973.175 -250.869 1008.67C-221.869 1044.15 -180.711 1067.76 -138.159 1084.64" stroke="#C5D8E9" stroke-miterlimit="10"/>
<path d="M894.628 -354.198C916.417 -289.018 867.061 -216.024 803.626 -188.387C741.703 -161.402 671.081 -165.931 603.769 -165.002C537.239 -164.082 465.711 -153.554 420.986 -106.487C363.871 -46.2697 368.243 54.1344 309.201 115.69C262.113 164.545 190.609 175.087 127.779 166.272C91.6796 161.197 56.8102 144.935 20.8805 135.122C-131.481 93.5474 -180.481 -58.8885 -300.135 -54.6051C-428.818 -49.9463 -482.61 24.919 -497.052 72.9612C-515.361 133.842 -530.395 282.334 -388.909 350.98C-330.574 379.279 -271.843 411.008 -222.41 454.446C-149.484 518.261 -120.513 634.516 -171.929 715.634C-207.513 771.752 -275.347 807.662 -294.523 872.323C-307.728 916.535 -294.362 965.15 -267.701 1001.52C-240.814 1038.24 -201.764 1064.26 -160.152 1083.39" stroke="#C5D8E9" stroke-miterlimit="10"/>
<path d="M890.954 -356.705C910.725 -289.076 862.404 -213.332 797.394 -183.818C735.413 -155.67 663.779 -159.73 596.103 -160.203C530.022 -160.663 459.725 -152.754 414.337 -109.134C356.447 -53.3222 356.378 42.9273 297.131 103.727C249.055 153.065 179.473 167.27 116.161 161.999C79.1608 158.919 42.4271 144.585 4.99768 134.896C-143.412 96.4671 -192.991 -50.1024 -310.038 -46.114C-435.029 -41.754 -489.227 29.7233 -504.787 77.3133C-524.29 136.935 -538.268 279.786 -403.938 348.893C-347.637 377.851 -290.554 410.83 -241.793 454.07C-170.977 516.424 -142.174 628.206 -189.735 707.715C-223.006 763.327 -287.686 800.441 -306.915 864.309C-320.458 908.785 -308.913 957.12 -284.618 994.353C-259.82 1032.33 -222.897 1060.77 -182.231 1082.12" stroke="#C5D8E9" stroke-miterlimit="10"/>
<path d="M887.275 -359.232C905.032 -289.134 857.751 -210.702 791.157 -179.268C729.095 -149.971 656.457 -153.524 588.437 -155.404C522.831 -157.21 453.753 -151.978 407.703 -111.804C349.022 -60.375 344.443 31.5962 285.095 91.7354C235.958 141.514 168.323 159.476 104.596 157.694C66.6606 156.635 28.1151 144.196 -10.8568 134.623C-155.239 99.1593 -205.491 -41.3593 -319.933 -37.6659C-441.231 -33.6047 -495.835 34.4848 -512.513 81.6225C-533.163 140.013 -546.122 277.313 -418.935 346.777C-364.615 376.442 -309.341 410.75 -261.158 453.688C-192.608 514.763 -163.788 621.924 -207.536 699.815C-238.489 754.941 -299.869 793.283 -319.279 856.328C-333.056 901.083 -323.468 949.152 -301.493 987.194C-278.793 1026.47 -243.993 1057.26 -204.286 1080.87" stroke="#C5D8E9" stroke-miterlimit="10"/>
<path d="M883.596 -361.758C899.339 -289.193 853.075 -208.086 784.916 -174.737C722.763 -144.33 649.155 -147.322 580.762 -150.644C515.613 -153.791 447.776 -151.221 401.041 -114.507C341.589 -67.4654 332.485 20.2509 273.011 79.7152C222.815 129.935 157.083 151.724 92.96 153.345C54.0755 154.333 13.7279 143.746 -26.7582 134.321C-167.054 101.647 -218.043 -32.6638 -329.874 -29.2464C-447.476 -25.465 -502.452 39.2083 -520.285 85.9031C-542.087 143.043 -554.02 274.912 -433.983 344.614C-381.641 375.004 -328.123 410.528 -280.555 453.254C-214.162 512.922 -185.425 615.628 -225.351 691.858C-253.996 746.54 -312.179 786.015 -331.657 848.291C-345.734 893.3 -338.047 941.169 -318.377 979.997C-297.804 1020.62 -265.098 1053.72 -226.331 1079.57" stroke="#C5D8E9" stroke-miterlimit="10"/>
<path d="M879.917 -364.285C893.622 -289.265 848.399 -205.47 778.679 -170.188C716.431 -138.688 641.857 -141.102 573.096 -145.845C508.409 -150.315 441.724 -150.526 394.407 -117.178C334.07 -74.6563 320.526 8.90557 260.961 67.7473C209.68 118.393 145.851 144.091 81.3805 149.062C41.5182 152.145 -0.58392 143.358 -42.6031 134.087C-178.755 104.027 -230.534 -23.8826 -339.74 -20.7648C-453.649 -17.2823 -509.013 43.9985 -527.982 90.2458C-550.912 146.15 -561.828 272.71 -448.955 342.513C-398.581 373.666 -346.805 410.383 -299.896 452.887C-235.645 511.123 -206.973 609.451 -243.109 683.967C-269.419 738.239 -324.428 778.832 -344.001 840.305C-358.402 885.555 -352.608 933.262 -335.228 972.852C-316.773 1014.86 -286.146 1050.24 -248.363 1078.33" stroke="#C5D8E9" stroke-miterlimit="10"/>
<path d="M876.243 -366.793C887.934 -289.305 843.719 -202.874 772.447 -165.619C710.099 -133.047 634.549 -134.839 565.411 -141.042C501.191 -146.815 435.733 -149.746 387.735 -119.839C326.622 -81.7237 308.534 -2.41189 248.887 55.7646C196.541 106.833 134.591 136.505 69.7584 144.77C28.923 149.965 -14.924 142.935 -58.4907 133.842C-190.47 106.268 -243.072 -15.1303 -349.667 -12.2886C-459.865 -9.10951 -515.597 48.774 -535.722 94.5784C-559.76 149.242 -569.703 270.646 -463.966 340.42C-415.526 372.39 -365.53 410.228 -319.275 452.528C-257.166 509.334 -228.526 603.336 -260.906 676.086C-284.893 729.971 -336.738 771.644 -356.36 832.343C-371.08 877.853 -367.212 925.426 -352.098 965.712C-335.799 1009.11 -307.237 1046.75 -270.394 1077.09" stroke="#C5D8E9" stroke-miterlimit="10"/>
<path d="M872.563 -369.319C882.236 -289.382 839.009 -200.31 766.206 -161.088C703.758 -127.443 627.261 -128.58 557.736 -136.281C493.991 -143.32 429.747 -149.027 381.096 -122.528C319.183 -88.8329 296.566 -13.7948 236.827 43.7591C183.398 95.2536 123.345 128.977 58.1696 140.45C16.3559 147.82 -29.2354 142.467 -74.3449 133.569C-202.104 108.35 -255.572 -6.38662 -359.542 -3.84451C-466.047 -0.964279 -522.124 53.5365 -543.428 98.8835C-568.556 152.302 -577.574 268.682 -478.967 338.286C-432.448 371.129 -384.246 410.03 -338.625 452.124C-278.64 507.493 -250.017 597.226 -278.674 668.158C-300.306 721.709 -349.02 764.41 -368.71 824.339C-383.749 870.108 -381.844 917.557 -368.954 958.548C-354.839 1003.39 -328.309 1043.26 -292.412 1075.82" stroke="#C5D8E9" stroke-miterlimit="10"/>
<path d="M868.884 -371.845C876.543 -289.44 834.319 -197.752 759.969 -156.538C697.392 -121.854 619.958 -122.298 550.07 -131.482C486.801 -139.786 423.775 -148.251 374.461 -125.198C311.773 -95.9093 284.588 -25.1357 224.79 31.7673C170.273 83.6692 112.131 121.501 46.5852 136.149C3.79801 145.712 -43.528 141.993 -90.2183 133.301C-213.727 110.307 -268.092 2.36115 -369.456 4.60824C-472.263 7.20866 -528.67 58.3028 -551.172 103.197C-577.348 155.381 -585.517 266.916 -493.982 336.175C-449.375 369.929 -402.957 409.852 -358.009 451.747C-300.152 505.662 -271.49 591.192 -296.475 660.258C-315.729 713.489 -361.331 757.223 -381.073 816.358C-396.436 862.368 -396.524 909.74 -385.829 951.389C-373.937 997.684 -349.405 1039.76 -314.467 1074.57" stroke="#C5D8E9" stroke-miterlimit="10"/>
<path d="M865.21 -374.353C870.836 -289.475 829.606 -195.207 753.733 -151.988C691.047 -116.27 612.659 -115.997 542.399 -126.702C479.606 -136.272 417.798 -147.494 367.804 -127.883C304.339 -103 272.582 -36.5097 212.716 19.7851C157.091 72.0991 100.875 114.096 34.9775 131.834C-8.79291 143.633 -57.8296 141.481 -106.092 133.032C-225.336 112.16 -280.596 11.0854 -379.369 13.0612C-478.484 15.3628 -535.197 63.0648 -558.917 107.511C-586.135 158.478 -593.523 265.307 -509.002 334.045C-466.312 368.772 -421.696 409.639 -377.378 451.346C-321.644 503.825 -292.896 585.182 -314.262 652.335C-331.123 705.303 -373.651 749.997 -393.446 808.34C-409.147 854.614 -411.232 901.889 -402.708 944.211C-393.077 991.966 -370.481 1036.25 -336.508 1073.29" stroke="#C5D8E9" stroke-miterlimit="10"/>
<path d="M861.531 -376.879C865.138 -289.552 824.887 -192.682 747.496 -147.439C684.672 -110.719 605.366 -109.677 534.733 -121.904C472.406 -132.696 411.83 -146.699 361.17 -130.553C296.929 -110.076 260.595 -47.8885 200.68 7.79351C143.962 60.4959 89.6851 106.715 23.3931 127.532C-21.3369 141.582 -72.1171 140.946 -121.941 132.778C-236.887 113.918 -293.092 19.8476 -389.244 21.5047C-484.667 23.5074 -541.663 67.8318 -566.628 111.797C-594.87 161.543 -601.553 263.845 -523.984 331.905C-483.211 367.686 -440.373 409.432 -396.728 450.941C-343.104 501.961 -314.213 579.211 -332.029 644.406C-346.452 697.14 -385.956 742.748 -405.777 800.331C-421.802 846.845 -425.954 894.063 -419.545 937.043C-412.212 986.267 -391.539 1032.73 -358.506 1072.02" stroke="#C5D8E9" stroke-miterlimit="10"/>
<path d="M857.852 -379.406C859.446 -289.61 820.159 -190.195 741.259 -142.889C678.303 -105.149 598.053 -103.352 527.063 -117.124C465.206 -129.12 405.873 -145.947 354.512 -133.238C289.519 -117.152 248.585 -59.2816 188.601 -4.20771C130.771 48.8877 78.462 99.3624 11.7855 123.217C-33.8948 139.555 -86.4138 140.372 -137.814 132.51C-248.443 115.576 -305.611 28.5955 -399.157 29.9576C-490.868 31.6569 -548.161 72.6272 -574.372 116.111C-603.633 164.655 -609.712 262.597 -539.023 329.78C-500.19 366.681 -459.093 409.216 -416.116 450.545C-364.586 500.082 -335.496 573.292 -349.835 636.487C-361.751 689.011 -398.295 735.527 -418.164 792.336C-434.527 839.114 -440.753 886.254 -436.444 929.869C-431.447 980.573 -412.654 1029.23 -380.585 1070.75" stroke="#C5D8E9" stroke-miterlimit="10"/>
<path d="M854.172 -381.932C853.729 -289.683 815.432 -187.707 735.018 -138.358C671.919 -99.6356 590.745 -97.0073 519.392 -112.344C457.987 -125.539 399.901 -145.17 347.873 -135.926C282.108 -124.228 236.574 -70.6743 176.564 -16.1989C117.623 37.2896 67.3094 92.0532 0.201142 118.916C-46.4057 137.557 -100.677 139.771 -153.669 132.237C-259.979 117.15 -318.12 37.1396 -409.051 38.4062C-497.069 39.6452 -554.622 77.4136 -582.097 120.42C-612.335 167.772 -617.967 261.533 -554.019 327.665C-517.166 365.775 -477.79 409.014 -435.481 450.164C-386.06 498.241 -356.666 567.426 -367.622 628.564C-377.004 680.911 -410.615 728.302 -430.518 784.313C-447.224 831.336 -455.542 878.404 -453.304 922.687C-450.663 974.874 -433.735 1025.7 -402.607 1069.47" stroke="#C5D8E9" stroke-miterlimit="10"/>
<path d="M850.479 -384.435C848.022 -289.718 810.666 -185.211 728.767 -133.785C665.507 -94.0756 583.427 -90.6211 511.707 -107.541C450.778 -121.921 393.914 -144.371 341.225 -138.573C274.689 -131.262 224.549 -82.0441 164.495 -28.1625C104.436 25.7 56.1521 84.805 -11.4019 114.619C-58.9261 135.601 -114.95 139.131 -169.537 131.988C-271.506 118.68 -330.639 45.8873 -418.941 46.8732C-503.266 47.8134 -561.074 82.2374 -589.818 124.749C-621.032 170.908 -626.355 260.662 -569.015 325.549C-534.199 364.964 -496.467 408.806 -454.846 449.782C-407.519 496.376 -377.75 561.579 -385.404 620.659C-392.166 672.849 -422.935 721.076 -442.882 776.332C-459.93 823.6 -470.383 870.585 -470.179 915.527C-469.941 969.169 -454.826 1022.21 -424.662 1068.21" stroke="#C5D8E9" stroke-miterlimit="10"/>
<path d="M846.8 -386.962C842.324 -289.795 805.91 -182.757 722.53 -129.235C659.109 -88.5391 576.114 -84.2156 504.037 -102.761C443.544 -118.317 387.942 -143.595 334.567 -141.258C267.259 -138.334 212.515 -93.4517 152.435 -40.1686C91.2598 14.068 45.0281 77.5287 -23.0097 110.304C-71.4322 133.622 -129.222 138.41 -185.43 131.724C-283.06 120.096 -343.177 54.6396 -428.873 55.3305C-509.506 55.9719 -567.544 87.0659 -597.581 129.067C-629.762 174.072 -634.948 259.943 -584.054 323.423C-551.36 364.205 -515.192 408.57 -474.234 449.386C-428.988 494.473 -398.773 555.737 -403.21 612.74C-407.267 664.792 -435.297 713.841 -455.25 768.332C-472.646 815.827 -485.247 862.753 -487.053 908.368C-489.256 963.474 -475.902 1018.7 -446.698 1066.95" stroke="#C5D8E9" stroke-miterlimit="10"/>
<path d="M843.121 -389.488C836.631 -289.853 801.135 -180.298 716.289 -124.704C652.701 -83.0402 568.778 -77.8241 496.366 -97.9813C436.335 -114.697 381.975 -142.8 327.928 -143.947C259.854 -145.391 200.499 -104.864 140.375 -52.1742C78.0641 2.44107 33.9277 70.2672 -34.5986 105.984C-83.9101 131.677 -143.485 137.647 -201.284 131.451C-294.567 121.461 -355.659 63.3786 -438.748 63.7744C-515.684 64.136 -573.939 91.8763 -605.287 133.372C-638.417 177.218 -643.67 259.356 -599.031 321.303C-568.594 363.564 -533.831 408.354 -493.579 449C-450.409 492.6 -419.654 549.901 -420.973 604.831C-422.226 656.741 -447.617 706.616 -467.581 760.323C-485.338 808.068 -500.078 854.893 -503.909 901.205C-508.581 957.741 -496.979 1015.19 -468.715 1065.69" stroke="#C5D8E9" stroke-miterlimit="10"/>
<path d="M839.447 -391.996C830.924 -289.888 796.36 -177.84 710.038 -120.131C646.28 -77.5182 561.431 -71.3905 488.681 -93.1783C429.077 -111.027 375.993 -141.981 321.256 -146.608C252.396 -152.416 188.446 -116.267 128.305 -64.1378C64.8542 -9.16285 22.8268 63.0858 -46.2161 101.71C-96.374 129.788 -157.757 136.846 -217.167 131.225C-306.102 122.791 -368.188 72.1688 -448.671 72.2697C-521.91 72.3515 -580.372 96.7762 -613.042 137.728C-647.095 180.43 -652.635 258.929 -614.08 319.22C-586.036 363.054 -552.528 408.152 -512.977 448.646C-471.868 490.735 -440.473 544.07 -438.788 596.954C-437.142 648.699 -459.99 699.423 -479.978 752.37C-498.078 800.36 -515 847.074 -520.817 894.074C-527.958 952.041 -518.103 1011.74 -490.804 1064.46" stroke="#C5D8E9" stroke-miterlimit="10"/>
<path d="M835.768 -394.522C825.227 -289.965 791.576 -175.419 703.796 -115.6C639.873 -72.0192 554.085 -64.9561 481.011 -88.3982C421.854 -107.384 370.007 -141.1 314.617 -149.297C244.961 -159.344 176.426 -127.697 116.246 -76.1434C51.6541 -20.8087 11.7692 55.8342 -57.8049 97.3907C-108.809 127.852 -172.014 135.94 -233.026 130.934C-317.622 124.018 -380.693 81.0549 -458.57 80.6993C-528.098 80.6391 -586.78 101.61 -620.771 142.019C-655.745 183.595 -661.799 258.511 -629.081 317.086C-603.673 362.573 -571.181 407.879 -532.346 448.246C-493.299 488.823 -461.187 538.173 -456.575 589.031C-451.915 640.583 -472.333 692.184 -492.327 744.366C-510.794 792.587 -529.898 839.19 -537.673 886.911C-547.33 946.28 -539.18 1008.23 -512.821 1063.2" stroke="#C5D8E9" stroke-miterlimit="10"/>
<path d="M832.088 -397.049C819.533 -290.024 786.791 -172.999 697.578 -111.055C633.465 -66.5215 546.743 -58.5041 473.359 -83.624C414.615 -103.719 364.034 -140.325 307.978 -151.987C237.551 -166.421 164.387 -139.125 104.204 -88.1548C38.4678 -32.4795 0.758469 48.61 -69.3986 93.0506C-121.249 125.896 -186.261 134.91 -248.885 130.641C-329.161 125.168 -393.198 89.7783 -468.45 89.123C-534.285 88.764 -593.142 106.472 -628.482 146.304C-664.376 186.754 -671.206 258.091 -644.068 314.926C-621.524 362.122 -589.82 407.581 -551.682 447.816C-514.682 486.859 -481.768 532.162 -474.329 581.079C-466.526 632.386 -484.667 684.901 -504.662 736.337C-523.514 784.793 -544.786 831.261 -554.519 879.703C-566.698 940.455 -560.223 1004.69 -534.829 1061.89" stroke="#C5D8E9" stroke-miterlimit="10"/>
<path d="M828.409 -399.575C813.841 -290.082 781.983 -170.593 691.342 -106.505C627.034 -61.0368 539.387 -52.027 465.693 -78.8249C407.381 -100.034 358.067 -139.53 301.349 -154.638C230.131 -173.454 152.263 -150.651 92.1539 -100.122C25.159 -44.2399 -10.2616 41.4298 -80.9781 88.7689C-133.628 124.027 -200.517 133.844 -264.749 130.411C-340.71 126.362 -405.708 98.5646 -478.353 97.6144C-540.496 96.9565 -599.528 111.401 -636.217 150.656C-673.021 190.019 -680.891 257.679 -659.074 312.854C-639.708 361.795 -608.441 407.36 -571.057 447.478C-536.103 484.985 -502.32 526.185 -492.121 573.217C-481.076 624.194 -497.124 677.689 -517.021 728.376C-536.33 777.024 -559.722 823.386 -571.385 872.583C-586.108 934.703 -581.31 1001.22 -556.874 1060.67" stroke="#C5D8E9" stroke-miterlimit="10"/>
<path d="M824.735 -402.083C808.148 -290.14 777.081 -168.325 685.105 -101.956C620.542 -55.6384 532.012 -45.5458 458.022 -74.0452C400.105 -96.3584 352.09 -138.773 294.71 -157.327C222.716 -180.55 140.276 -162.03 80.1177 -112.114C12.0108 -55.8385 -21.2294 34.2161 -92.5622 84.4676C-146.011 122.139 -214.768 132.634 -280.598 130.157C-352.282 127.46 -418.208 107.308 -488.224 106.077C-546.67 105.139 -605.852 116.335 -643.919 154.98C-681.61 193.27 -690.799 257.1 -674.07 310.738C-658.247 361.413 -627.037 407.073 -590.426 447.077C-557.5 483.045 -522.815 520.033 -509.907 565.293C-495.507 615.832 -509.449 670.445 -529.39 720.376C-549.036 769.289 -574.652 815.449 -588.259 865.424C-605.532 928.894 -602.401 997.732 -578.911 1059.41" stroke="#C5D8E9" stroke-miterlimit="10"/>
<path d="M821.056 -404.61C802.436 -290.194 772.339 -165.814 678.849 -97.4011C614.153 -50.0637 524.608 -39.0172 450.333 -69.2609C392.833 -92.6641 346.08 -137.988 288.033 -160.007C215.249 -187.612 128.246 -173.418 68.0198 -124.111C-1.18019 -67.4467 -32.2589 26.9974 -104.189 80.1568C-158.437 120.241 -229.061 131.253 -296.495 129.874C-363.91 128.491 -430.751 116.041 -498.165 114.496C-552.9 113.255 -612.266 121.231 -651.692 159.26C-690.288 196.482 -701.034 256.258 -689.118 308.575C-677.202 360.891 -645.686 406.738 -609.823 446.643C-578.907 481.066 -543.285 513.734 -527.727 557.317C-509.879 607.295 -521.783 663.162 -541.772 712.32C-561.761 761.477 -589.616 807.459 -605.153 858.188C-624.998 922.993 -623.515 994.15 -600.984 1058.08" stroke="#C5D8E9" stroke-miterlimit="10"/>
<path d="M-86.4021 -588.291C-13.5319 -523.879 47.0119 -428.371 36.4802 -329.782C28.4663 -254.81 -20.1472 -187.34 -79.692 -142.735C-129.671 -105.288 -184.172 -77.7603 -215.775 -34.6706C-255.639 19.6729 -254.956 90.5212 -251.102 170.793C-247.173 252.519 -226.701 328.362 -243.766 401.98C-255.914 454.38 -288.39 502.46 -328.767 542.114C-398.946 610.991 -487.565 616.852 -540.675 684.132C-590.649 747.44 -602.794 812.196 -588.884 861.968C-573.988 915.268 -510.367 973.155 -429.069 973.258C-376.838 973.317 -319.629 972.905 -262.226 966.538C-198.784 959.501 -132.164 974.342 -90.5525 1013.55C-52.5546 1049.34 -31.9061 1101.96 -1.97814 1151.68C24.1136 1195.03 52.7631 1234.26 87.1543 1264.28C128.689 1300.54 180.064 1324.76 235.917 1332.22" stroke="#C5D8E9" stroke-miterlimit="10"/>
<path d="M-90.6545 -586.987C-17.1397 -519.447 45.9667 -423.095 36.1161 -322.053C28.7485 -246.332 -19.7381 -177.603 -80.7738 -133.741C-131.379 -97.3704 -187.3 -72.5999 -222.04 -31.1411C-265.79 21.0689 -271.383 92.7675 -267.991 172.709C-264.471 255.563 -239.298 332.513 -254.39 408.351C-265.263 462.917 -297.92 513.138 -338.922 554.355C-405.108 620.865 -488.601 632.123 -540.32 697.189C-588.206 757.426 -603.075 820.268 -590.401 870.745C-577.01 924.071 -516.328 979.654 -440.153 983.671C-388.173 986.413 -331.554 987.374 -274.689 981.441C-213.718 975.089 -149.825 987.01 -107.879 1022.48C-68.2426 1056 -45.2952 1107.07 -15.9628 1156.33C10.0936 1200.11 37.3309 1240.98 70.9964 1272.98C112.115 1312.06 164.103 1339.03 221.127 1348.64" stroke="#C5D8E9" stroke-miterlimit="10"/>
<path d="M-94.9306 -585.7C-20.7568 -515.055 44.8552 -417.844 35.7519 -314.325C29.0261 -237.874 -19.3387 -167.824 -81.8557 -124.748C-133.063 -89.4399 -190.427 -67.4409 -228.291 -27.6367C-275.925 22.4397 -287.813 94.9936 -284.89 174.586C-281.807 258.535 -251.867 336.616 -265.019 414.7C-274.578 471.425 -307.506 523.748 -349.085 566.558C-411.332 630.652 -489.622 647.37 -539.955 710.202C-585.748 767.387 -603.341 828.315 -591.889 879.475C-579.964 932.817 -522.305 986.336 -451.205 994.055C-399.509 999.668 -343.432 1001.79 -287.119 996.315C-228.603 990.624 -167.411 999.577 -125.186 1031.41C-83.8353 1062.56 -58.6465 1112.17 -29.9144 1160.96C-3.8932 1205.17 21.8894 1247.66 54.8717 1281.64C95.5354 1323.55 148.198 1353.28 206.351 1365.03" stroke="#C5D8E9" stroke-miterlimit="10"/>
<path d="M-99.2067 -584.411C-24.3884 -510.639 43.7436 -412.593 35.383 -306.614C29.28 -229.429 -18.925 -158.067 -82.9375 -115.755C-134.766 -81.504 -193.47 -62.1807 -234.537 -24.1124C-285.972 23.9308 -304.24 97.2394 -301.78 176.502C-299.129 261.564 -264.411 340.734 -275.625 421.065C-283.847 479.962 -317.121 534.326 -359.202 578.79C-417.57 640.463 -490.497 662.723 -539.542 723.244C-583.125 777.449 -603.526 836.363 -593.354 888.219C-582.877 941.572 -528.344 993.257 -462.238 1004.43C-410.898 1013.12 -355.295 1016.18 -299.53 1011.18C-243.489 1006.16 -184.944 1012.03 -142.455 1040.34C-99.3943 1069.01 -72.012 1117.3 -43.8801 1165.61C-17.8942 1210.25 6.43363 1254.36 38.7328 1290.32C78.9227 1335.08 132.275 1367.54 191.579 1381.45" stroke="#C5D8E9" stroke-miterlimit="10"/>
<path d="M-103.464 -583.128C-27.9817 -506.232 42.6322 -407.343 35.0142 -298.905C29.5386 -220.966 -18.5065 -148.293 -84.005 -106.786C-136.427 -73.5593 -196.602 -57.0405 -240.774 -20.6314C-296.117 25.2639 -320.675 99.4466 -318.664 178.356C-316.464 264.536 -276.951 344.79 -286.244 427.372C-293.115 488.418 -326.826 544.783 -369.351 590.969C-423.874 650.169 -491.528 677.932 -539.163 736.233C-580.658 787.367 -603.721 844.372 -594.829 896.924C-585.798 950.289 -534.526 1000.33 -473.275 1014.8C-422.411 1026.8 -367.143 1030.55 -311.964 1026.04C-258.384 1021.66 -202.504 1024.37 -159.772 1049.23C-114.948 1075.31 -85.3866 1122.38 -57.874 1170.22C-31.9424 1215.3 -9.09293 1261.03 22.5658 1298.98C62.244 1346.58 116.309 1381.78 176.761 1397.83" stroke="#C5D8E9" stroke-miterlimit="10"/>
<path d="M-107.74 -581.84C-31.6178 -501.835 41.4829 -402.083 34.6455 -291.195C29.7927 -212.522 -18.0833 -138.499 -85.0913 -97.8123C-138.125 -65.6047 -199.757 -51.9143 -247.024 -17.1264C-306.271 26.64 -337.262 101.691 -335.539 180.247C-333.976 267.53 -289.443 348.875 -296.854 433.718C-302.378 496.893 -336.596 555.217 -379.49 603.186C-430.211 659.904 -492.549 693.179 -538.774 749.26C-578.181 797.324 -603.902 852.439 -596.317 905.654C-588.71 959.045 -540.942 1007.61 -484.331 1025.16C-434.096 1040.77 -379.029 1044.93 -324.394 1040.91C-273.298 1037.16 -220.064 1036.63 -177.06 1058.16C-130.453 1081.49 -98.8425 1127.55 -71.8208 1174.86C-46.0101 1220.43 -24.5723 1267.72 6.427 1307.66C45.5889 1358.09 100.386 1396.04 161.99 1414.25" stroke="#C5D8E9" stroke-miterlimit="10"/>
<path d="M-111.997 -580.555C-35.2112 -497.427 40.1912 -396.827 34.3004 -283.47C29.9471 -204.072 -17.6129 -128.676 -86.1541 -88.8232C-139.781 -57.6396 -202.885 -46.7538 -253.275 -13.6206C-316.43 27.998 -353.636 103.905 -352.433 182.144C-351.259 270.551 -301.94 352.942 -307.459 440.083C-311.594 505.398 -346.481 565.599 -389.611 615.4C-436.591 669.63 -493.57 708.427 -538.366 762.284C-575.705 807.281 -604.025 860.493 -597.763 914.394C-591.56 967.806 -547.591 1015 -495.34 1035.56C-445.963 1054.98 -390.868 1059.26 -336.79 1055.76C-288.164 1052.61 -237.638 1048.75 -194.333 1067.06C-145.958 1087.5 -112.16 1132.62 -85.7531 1179.48C-59.9633 1225.46 -40.0563 1274.39 -9.67847 1316.32C28.9291 1369.58 84.5003 1410.29 147.252 1430.63" stroke="#C5D8E9" stroke-miterlimit="10"/>
<path d="M-116.268 -579.249C-38.8381 -492.993 39.1887 -391.543 33.9173 -275.737C30.272 -195.585 -17.1949 -118.821 -87.2312 -79.812C-141.46 -49.6099 -206.026 -41.5714 -259.517 -10.0785C-326.58 29.3923 -370.015 106.178 -369.322 184.059C-368.524 273.565 -314.432 357.026 -318.084 446.452C-320.834 513.887 -356.483 575.907 -399.765 627.64C-443.047 679.373 -494.606 723.697 -538.011 775.339C-573.261 817.265 -604.201 868.578 -599.28 923.17C-594.458 976.618 -554.643 1022.47 -506.424 1045.97C-458.225 1069.47 -402.778 1073.62 -349.253 1070.66C-303.097 1068.12 -255.344 1060.83 -211.659 1076C-161.566 1093.41 -125.511 1137.73 -99.7614 1184.12C-74.0069 1230.53 -55.6353 1281.08 -25.86 1325C12.1742 1381.1 68.5154 1424.54 132.419 1447.04" stroke="#C5D8E9" stroke-miterlimit="10"/>
</g>
</g>
</g>
<defs>
<clipPath id="clip0_1_1049">
<rect width="1440" height="900" fill="white"/>
</clipPath>
<clipPath id="clip1_1_1049">
<rect width="1440" height="900" fill="white"/>
</clipPath>
<clipPath id="clip2_1_1049">
<rect width="1467" height="979" fill="white" transform="translate(1055.65 639.944) rotate(166.25)"/>
</clipPath>
</defs>
</svg>
