<svg width="24.000000" height="24.704590" viewBox="0 0 24 24.7046" fill="none" xmlns="http://www.w3.org/2000/svg" xmlns:xlink="http://www.w3.org/1999/xlink">
	<desc>
			Created with Pixso.
	</desc>
	<defs/>
	<rect id="Favorites" rx="-0.500000" width="23.000000" height="23.000000" transform="translate(0.500000 0.852539)" fill="#FFFFFF" fill-opacity="0"/>
	<rect id="State=Default" rx="-0.500000" width="23.000000" height="23.000000" transform="translate(0.500000 0.852539)" fill="#FFFFFF" fill-opacity="0"/>
	<path id="Vector" d="M13.89 7.03C14.33 8.14 14.55 8.69 15.01 9.03C15.46 9.36 16.05 9.42 17.24 9.52L17.46 9.54C19.4 9.72 20.38 9.8 20.58 10.42C20.79 11.04 20.07 11.7 18.63 13.01L18.14 13.45C17.41 14.12 17.05 14.45 16.88 14.89C16.84 14.97 16.82 15.05 16.8 15.14C16.68 15.59 16.79 16.07 17.01 17.04L17.07 17.34C17.47 19.11 17.66 20 17.32 20.38C17.19 20.53 17.02 20.63 16.84 20.68C16.34 20.82 15.64 20.24 14.23 19.09C13.3 18.34 12.84 17.96 12.31 17.88C12.1 17.84 11.89 17.84 11.68 17.88C11.15 17.96 10.69 18.34 9.76 19.09C8.35 20.24 7.65 20.82 7.15 20.68C6.97 20.63 6.8 20.53 6.67 20.38C6.33 20 6.52 19.11 6.92 17.34L6.98 17.04C7.2 16.07 7.3 15.59 7.19 15.14C7.17 15.05 7.15 14.97 7.11 14.89C6.94 14.45 6.58 14.12 5.85 13.45L5.36 13.01C3.92 11.7 3.2 11.04 3.4 10.42C3.61 9.8 4.58 9.72 6.53 9.54L6.75 9.52C7.94 9.42 8.53 9.36 8.98 9.03C9.44 8.69 9.66 8.14 10.1 7.03L10.14 6.94C10.92 4.98 11.32 4 12 4C12.67 4 13.06 4.98 13.85 6.94L13.89 7.03Z" stroke="#0B0B0C" stroke-opacity="1.000000" stroke-width="1.000000"/>
</svg>
