<svg width="36" height="36" viewBox="0 0 36 36" fill="none" xmlns="http://www.w3.org/2000/svg">
<g id="Picture" clip-path="url(#clip0_70_193)">
<path id="Vector" d="M34.7143 3.84979H1.28571C0.574554 3.84979 0 4.42435 0 5.13551V30.8498C0 31.561 0.574554 32.1355 1.28571 32.1355H34.7143C35.4254 32.1355 36 31.561 36 30.8498V5.13551C36 4.42435 35.4254 3.84979 34.7143 3.84979ZM33.1071 29.2427H2.89286V27.6395L8.45759 21.0382L14.4884 28.19L23.8701 17.0685L33.1071 28.0212V29.2427ZM33.1071 24.0275L24.1152 13.3641C23.9866 13.2114 23.7536 13.2114 23.625 13.3641L14.4884 24.1962L8.70268 17.3377C8.57411 17.1851 8.34107 17.1851 8.2125 17.3377L2.89286 23.6458V6.74265H33.1071V24.0275ZM9.64286 15.7427C10.1072 15.7427 10.5669 15.6512 10.9959 15.4735C11.4249 15.2958 11.8147 15.0354 12.143 14.7071C12.4713 14.3787 12.7317 13.989 12.9094 13.56C13.0871 13.131 13.1786 12.6713 13.1786 12.2069C13.1786 11.7426 13.0871 11.2828 12.9094 10.8539C12.7317 10.4249 12.4713 10.0351 12.143 9.70681C11.8147 9.37849 11.4249 9.11805 10.9959 8.94036C10.5669 8.76268 10.1072 8.67122 9.64286 8.67122C8.70513 8.67122 7.8058 9.04373 7.14273 9.70681C6.47965 10.3699 6.10714 11.2692 6.10714 12.2069C6.10714 13.1447 6.47965 14.044 7.14273 14.7071C7.8058 15.3701 8.70513 15.7427 9.64286 15.7427ZM9.64286 11.0819C10.2656 11.0819 10.7679 11.5842 10.7679 12.2069C10.7679 12.8297 10.2656 13.3319 9.64286 13.3319C9.02009 13.3319 8.51786 12.8297 8.51786 12.2069C8.51786 11.5842 9.02009 11.0819 9.64286 11.0819Z" fill="#0B0B0C"/>
</g>
<defs>
<clipPath id="clip0_70_193">
<rect width="36" height="36" fill="white"/>
</clipPath>
</defs>
</svg>
