<svg width="16" height="16" viewBox="0 0 16 16" fill="none" xmlns="http://www.w3.org/2000/svg">
<path d="M7.01071 5.11421C7.43023 4.06834 7.63999 3.54541 8.0007 3.54541C8.36141 3.54541 8.57117 4.06834 8.99069 5.11421L9.01023 5.16291C9.24724 5.75377 9.36574 6.04921 9.60726 6.22877C9.84878 6.40834 10.1658 6.43673 10.7999 6.49352L10.9145 6.50379C11.9523 6.59673 12.4712 6.6432 12.5822 6.97332C12.6933 7.30345 12.3079 7.65403 11.5372 8.3552L11.28 8.58921C10.8899 8.94415 10.6948 9.12162 10.6039 9.35423C10.5869 9.39762 10.5728 9.44207 10.5617 9.4873C10.5019 9.72979 10.559 9.98724 10.6733 10.5022L10.7088 10.6624C10.9188 11.6088 11.0238 12.0819 10.8405 12.286C10.772 12.3623 10.683 12.4172 10.5841 12.4441C10.3194 12.5164 9.94372 12.2102 9.19228 11.5979C8.69885 11.1958 8.45214 10.9948 8.16888 10.9496C8.05747 10.9318 7.94393 10.9318 7.83252 10.9496C7.54926 10.9948 7.30255 11.1958 6.80912 11.5979C6.05768 12.2102 5.68196 12.5164 5.41732 12.4441C5.31843 12.4172 5.22941 12.3623 5.16092 12.286C4.97763 12.0819 5.08261 11.6088 5.29256 10.6624L5.32813 10.5022C5.44237 9.98724 5.49949 9.72979 5.43973 9.4873C5.42858 9.44207 5.41448 9.39762 5.39752 9.35423C5.3066 9.12162 5.11153 8.94415 4.7214 8.58921L4.46418 8.3552C3.69349 7.65403 3.30815 7.30345 3.41918 6.97332C3.5302 6.6432 4.04909 6.59673 5.08685 6.50379L5.20149 6.49352C5.83558 6.43673 6.15262 6.40834 6.39414 6.22877C6.63566 6.04921 6.75417 5.75377 6.99117 5.16291L7.01071 5.11421Z" fill="#8D24F8"/>
</svg>
