<svg width="30" height="30" viewBox="0 0 30 30" fill="none" xmlns="http://www.w3.org/2000/svg">
<rect width="30" height="30" rx="15" fill="#BADEFF"/>
<path d="M13.1437 9.5892C13.9303 7.6282 14.3236 6.64771 15 6.64771C15.6763 6.64771 16.0696 7.6282 16.8562 9.5892L16.8928 9.68052C17.3372 10.7884 17.5594 11.3423 18.0123 11.679C18.4651 12.0157 19.0596 12.0689 20.2485 12.1754L20.4634 12.1947C22.4092 12.3689 23.3822 12.4561 23.5903 13.075C23.7985 13.694 23.076 14.3514 21.6309 15.6661L21.1487 16.1048C20.4172 16.7703 20.0514 17.1031 19.8809 17.5392C19.8491 17.6206 19.8227 17.7039 19.8018 17.7888C19.6897 18.2434 19.7968 18.7261 20.0111 19.6916L20.0777 19.9921C20.4714 21.7665 20.6682 22.6536 20.3246 23.0363C20.1961 23.1793 20.0292 23.2822 19.8438 23.3328C19.3476 23.4682 18.6431 22.8942 17.2342 21.7461C16.309 20.9922 15.8464 20.6153 15.3153 20.5305C15.1064 20.4971 14.8935 20.4971 14.6846 20.5305C14.1535 20.6153 13.6909 20.9922 12.7658 21.7461C11.3568 22.8942 10.6523 23.4682 10.1561 23.3328C9.97072 23.2822 9.80381 23.1793 9.67538 23.0363C9.33171 22.6536 9.52854 21.7665 9.92222 19.9921L9.98889 19.6916C10.2031 18.7261 10.3102 18.2434 10.1982 17.7888C10.1772 17.7039 10.1508 17.6206 10.119 17.5392C9.94854 17.1031 9.58279 16.7703 8.85128 16.1048L8.369 15.6661C6.92395 14.3514 6.20143 13.694 6.40961 13.075C6.61779 12.4561 7.5907 12.3689 9.53651 12.1947L9.75145 12.1754C10.9404 12.0689 11.5348 12.0157 11.9877 11.679C12.4405 11.3423 12.6627 10.7884 13.1071 9.68052L13.1437 9.5892Z" stroke="#1890FF"/>
</svg>
