<svg width="24" height="23" viewBox="0 0 24 24" fill="none" xmlns="http://www.w3.org/2000/svg">
    <path
        d="M8.14386 3.58896C8.93046 1.62796 9.32377 0.647461 10.0001 0.647461C10.6764 0.647461 11.0697 1.62796 11.8563 3.58896L11.893 3.68028C12.3373 4.78814 12.5595 5.34208 13.0124 5.67877C13.4652 6.01545 14.0597 6.06869 15.2486 6.17517L15.4636 6.19442C17.4094 6.36868 18.3823 6.45581 18.5905 7.0748C18.7986 7.69378 18.0761 8.35112 16.6311 9.66581L16.1488 10.1046C15.4173 10.7701 15.0515 11.1029 14.8811 11.539C14.8493 11.6203 14.8228 11.7037 14.8019 11.7885C14.6899 12.2432 14.797 12.7259 15.0112 13.6914L15.0778 13.9919C15.4715 15.7662 15.6684 16.6534 15.3247 17.0361C15.1963 17.1791 15.0293 17.282 14.8439 17.3326C14.3477 17.468 13.6433 16.8939 12.2343 15.7459C11.3091 14.992 10.8465 14.615 10.3154 14.5302C10.1065 14.4969 9.89366 14.4969 9.68475 14.5302C9.15365 14.615 8.69106 14.992 7.76589 15.7459C6.35694 16.8939 5.65246 17.468 5.15626 17.3326C4.97084 17.282 4.80393 17.1791 4.67551 17.0361C4.33183 16.6534 4.52866 15.7662 4.92234 13.9919L4.98902 13.6914C5.20322 12.7259 5.31033 12.2432 5.19827 11.7885C5.17737 11.7037 5.15093 11.6203 5.11913 11.539C4.94866 11.1029 4.58291 10.7701 3.8514 10.1046L3.36912 9.66581C1.92408 8.35112 1.20155 7.69378 1.40973 7.0748C1.61791 6.45581 2.59082 6.36868 4.53663 6.19442L4.75157 6.17517C5.94049 6.06869 6.53494 6.01545 6.98779 5.67877C7.44064 5.34208 7.66284 4.78814 8.10723 3.68027L8.14386 3.58896Z"
        stroke="white" />
</svg>